<svg width="21" height="16" viewBox="0 0 21 16" xmlns="http://www.w3.org/2000/svg">
<path d="M20.2916 10.4357C20.2916 8.64703 19.0396 7.08637 17.1756 6.2417C17.2856 6.6317 17.3489 7.03437 17.3602 7.4477C17.5462 7.55837 17.7262 7.6777 17.8942 7.8077C18.8342 8.53303 19.3529 9.4657 19.3529 10.4357C19.3529 11.405 18.8362 12.3384 17.8942 13.0624C16.8629 13.8577 15.4762 14.2964 13.9902 14.2964C12.9882 14.2964 12.0316 14.0964 11.1982 13.7237C10.6809 13.8257 10.1429 13.8904 9.5889 13.913C10.7256 14.767 12.2776 15.2944 13.9902 15.2944C15.0896 15.2944 16.1229 15.0784 17.0222 14.6964L19.3162 15.867L18.8529 13.5264C19.7509 12.6864 20.2916 11.6097 20.2916 10.4357Z"/>
<path d="M16.7076 6.79383C16.6949 6.38116 16.6329 5.97783 16.5236 5.58849C15.7229 2.73916 12.4349 0.604492 8.5009 0.604492C3.9669 0.605159 0.291565 3.43983 0.291565 6.93649C0.291565 8.46649 0.994898 9.86849 2.16623 10.9638L1.56223 14.0118L4.5509 12.4872C5.7229 12.9845 7.0689 13.2685 8.5009 13.2685C8.6469 13.2685 8.79223 13.2645 8.93623 13.2592C9.4889 13.2372 10.0276 13.1718 10.5462 13.0692C14.0902 12.3685 16.7102 9.88849 16.7102 6.93649C16.7096 6.88916 16.7089 6.84183 16.7076 6.79383ZM13.5882 10.3605C12.3436 11.3192 10.7016 11.8805 8.92623 11.9578C8.78557 11.9652 8.64357 11.9685 8.50023 11.9685C8.22556 11.9685 7.95423 11.9565 7.68556 11.9332C6.06023 11.7972 4.56623 11.2512 3.41357 10.3618C2.1889 9.41716 1.51423 8.20116 1.51423 6.93783C1.51423 5.67449 2.1889 4.45849 3.41357 3.51383C4.7569 2.47783 6.56356 1.90716 8.50023 1.90716C10.4376 1.90716 12.2449 2.47783 13.5869 3.51383C14.1949 3.98249 14.6662 4.51783 14.9889 5.09249C15.1929 5.45716 15.3362 5.83783 15.4156 6.22716C15.4629 6.46116 15.4869 6.69849 15.4869 6.93716C15.4869 8.19983 14.8129 9.41583 13.5882 10.3605Z"/>
<path d="M11.4129 7.85362C11.9088 7.85362 12.3109 7.45157 12.3109 6.95562C12.3109 6.45967 11.9088 6.05762 11.4129 6.05762C10.9169 6.05762 10.5149 6.45967 10.5149 6.95562C10.5149 7.45157 10.9169 7.85362 11.4129 7.85362Z"/>
<path d="M8.50087 7.85362C8.99683 7.85362 9.39887 7.45157 9.39887 6.95562C9.39887 6.45967 8.99683 6.05762 8.50087 6.05762C8.00492 6.05762 7.60287 6.45967 7.60287 6.95562C7.60287 7.45157 8.00492 7.85362 8.50087 7.85362Z"/>
<path d="M5.58888 7.85446C6.0852 7.85446 6.48755 7.45212 6.48755 6.9558C6.48755 6.45948 6.0852 6.05713 5.58888 6.05713C5.09256 6.05713 4.69022 6.45948 4.69022 6.9558C4.69022 7.45212 5.09256 7.85446 5.58888 7.85446Z"/>
</svg>
