<svg width="18" height="18" viewBox="0 0 18 18" xmlns="http://www.w3.org/2000/svg">
<g clip-path="url(#clip0)">
<path d="M3.75 0H0.75C0.336 0 0 0.336 0 0.75V3.75C0 4.164 0.336 4.5 0.75 4.5H3.75C4.164 4.5 4.5 4.164 4.5 3.75V0.75C4.5 0.336 4.164 0 3.75 0Z"/>
<path d="M3.75 6.75H0.75C0.336 6.75 0 7.086 0 7.5V10.5C0 10.914 0.336 11.25 0.75 11.25H3.75C4.164 11.25 4.5 10.914 4.5 10.5V7.5C4.5 7.086 4.164 6.75 3.75 6.75Z"/>
<path d="M3.75 13.5H0.75C0.336 13.5 0 13.836 0 14.25V17.25C0 17.664 0.336 18 0.75 18H3.75C4.164 18 4.5 17.664 4.5 17.25V14.25C4.5 13.836 4.164 13.5 3.75 13.5Z"/>
<path d="M10.5 0H7.5C7.086 0 6.75 0.336 6.75 0.75V3.75C6.75 4.164 7.086 4.5 7.5 4.5H10.5C10.914 4.5 11.25 4.164 11.25 3.75V0.75C11.25 0.336 10.914 0 10.5 0Z"/>
<path d="M10.5 6.75H7.5C7.086 6.75 6.75 7.086 6.75 7.5V10.5C6.75 10.914 7.086 11.25 7.5 11.25H10.5C10.914 11.25 11.25 10.914 11.25 10.5V7.5C11.25 7.086 10.914 6.75 10.5 6.75Z"/>
<path d="M10.5 13.5H7.5C7.086 13.5 6.75 13.836 6.75 14.25V17.25C6.75 17.664 7.086 18 7.5 18H10.5C10.914 18 11.25 17.664 11.25 17.25V14.25C11.25 13.836 10.914 13.5 10.5 13.5Z"/>
<path d="M17.25 0H14.25C13.836 0 13.5 0.336 13.5 0.75V3.75C13.5 4.164 13.836 4.5 14.25 4.5H17.25C17.664 4.5 18 4.164 18 3.75V0.75C18 0.336 17.664 0 17.25 0Z"/>
<path d="M17.25 6.75H14.25C13.836 6.75 13.5 7.086 13.5 7.5V10.5C13.5 10.914 13.836 11.25 14.25 11.25H17.25C17.664 11.25 18 10.914 18 10.5V7.5C18 7.086 17.664 6.75 17.25 6.75Z"/>
<path d="M17.25 13.5H14.25C13.836 13.5 13.5 13.836 13.5 14.25V17.25C13.5 17.664 13.836 18 14.25 18H17.25C17.664 18 18 17.664 18 17.25V14.25C18 13.836 17.664 13.5 17.25 13.5Z"/>
</g>
<defs>
<clipPath id="clip0">
<rect width="18" height="18" fill="white"/>
</clipPath>
</defs>
</svg>
