<svg width="22" height="17" viewBox="0 0 22 17" xmlns="http://www.w3.org/2000/svg">
<path d="M20.2155 16.3494H6.17285C5.59409 16.3494 5.125 15.8803 5.125 15.3015C5.125 14.7228 5.59409 14.2537 6.17285 14.2537H20.2151C20.7939 14.2537 21.263 14.7228 21.263 15.3015C21.263 15.8803 20.7942 16.3494 20.2155 16.3494Z"/>
<path d="M20.2155 9.77197H6.17285C5.59409 9.77197 5.125 9.30289 5.125 8.72412C5.125 8.14536 5.59409 7.67627 6.17285 7.67627H20.2151C20.7939 7.67627 21.263 8.14536 21.263 8.72412C21.2633 9.30289 20.7942 9.77197 20.2155 9.77197Z"/>
<path d="M20.2155 3.19458H6.17285C5.59409 3.19458 5.125 2.72549 5.125 2.14673C5.125 1.56797 5.59409 1.09888 6.17285 1.09888H20.2151C20.7939 1.09888 21.263 1.56797 21.263 2.14673C21.263 2.72549 20.7942 3.19458 20.2155 3.19458Z"/>
<path d="M1.67094 3.63509C2.44815 3.63509 3.0782 3.00503 3.0782 2.22782C3.0782 1.45061 2.44815 0.820557 1.67094 0.820557C0.893726 0.820557 0.263672 1.45061 0.263672 2.22782C0.263672 3.00503 0.893726 3.63509 1.67094 3.63509Z"/>
<path d="M1.67094 10.1314C2.44815 10.1314 3.0782 9.50137 3.0782 8.72416C3.0782 7.94695 2.44815 7.31689 1.67094 7.31689C0.893726 7.31689 0.263672 7.94695 0.263672 8.72416C0.263672 9.50137 0.893726 10.1314 1.67094 10.1314Z"/>
<path d="M1.67094 16.6278C2.44815 16.6278 3.0782 15.9977 3.0782 15.2205C3.0782 14.4433 2.44815 13.8132 1.67094 13.8132C0.893726 13.8132 0.263672 14.4433 0.263672 15.2205C0.263672 15.9977 0.893726 16.6278 1.67094 16.6278Z"/>
</svg>
