<svg width="17" height="24" viewBox="0 0 17 24" xmlns="http://www.w3.org/2000/svg">
<path d="M8.50073 0C5.05385 0 2.25073 2.691 2.25073 6C2.25073 9.309 5.05385 12 8.50073 12C11.9476 12 14.7507 9.309 14.7507 6C14.7507 2.691 11.9476 0 8.50073 0ZM8.50073 10.5C5.91635 10.5 3.81323 8.481 3.81323 6C3.81323 3.519 5.91635 1.5 8.50073 1.5C11.0851 1.5 13.1882 3.519 13.1882 6C13.1882 8.481 11.0851 10.5 8.50073 10.5Z"/>
<path d="M14.6102 22.8193L9.14147 15.3193C8.85084 14.9203 8.15553 14.9203 7.86178 15.3193L2.39303 22.8193C2.14616 23.1583 2.23053 23.6263 2.58522 23.8633C2.93834 24.1018 3.42584 24.0193 3.67272 23.6803L8.50084 17.0578L13.3305 23.6803C13.4821 23.8888 13.7243 23.9998 13.9696 23.9998C14.1258 23.9998 14.2805 23.9563 14.4196 23.8633C14.7727 23.6263 14.8587 23.1598 14.6102 22.8193Z"/>
<path d="M16.2335 12.3629C15.9289 12.0704 15.4335 12.0704 15.1289 12.3629C11.471 15.8729 5.52573 15.8729 1.87105 12.3629C1.56636 12.0704 1.07104 12.0704 0.766357 12.3629C0.46167 12.6554 0.46167 13.1309 0.766357 13.4234C2.89917 15.4694 5.70073 16.4939 8.50073 16.4939C11.3007 16.4939 14.1023 15.4694 16.2335 13.4234C16.5382 13.1309 16.5382 12.6554 16.2335 12.3629Z"/>
</svg>
