<svg width="40" height="42" fill="none" xmlns="http://www.w3.org/2000/svg"><path d="M11.608 27.654h23.143a4.774 4.774 0 004.764-4.765v-9.841c0-.017 0-.034-.008-.051 0-.017-.009-.043-.009-.06 0-.018-.009-.035-.009-.052-.008-.018-.008-.035-.017-.06-.008-.018-.008-.035-.017-.052-.009-.018-.009-.035-.017-.052-.009-.018-.018-.035-.026-.06-.009-.018-.017-.035-.026-.044a12.5 12.5 0 00-.026-.052c-.009-.017-.017-.026-.026-.043-.009-.017-.026-.034-.035-.052-.008-.017-.017-.026-.034-.043-.009-.017-.026-.026-.035-.043-.008-.017-.025-.026-.034-.043-.009-.017-.026-.026-.035-.035a17.534 17.534 0 01-.043-.043c-.017-.008-.026-.026-.043-.034-.017-.009-.035-.026-.052-.035-.017-.009-.026-.017-.043-.026a.185.185 0 01-.052-.034l-.051-.026-.052-.026-.052-.026c-.017-.009-.035-.009-.052-.017a.16.16 0 00-.06-.018c-.017 0-.035-.008-.043-.008-.026-.009-.044-.009-.07-.009-.008 0-.017-.008-.034-.008L9.183 7.947V3.856c0-.043 0-.087-.009-.121 0-.009 0-.017-.008-.035 0-.026-.009-.051-.009-.077-.009-.026-.009-.043-.017-.07 0-.017-.009-.025-.009-.043l-.026-.077c0-.009-.008-.026-.008-.035a.258.258 0 00-.035-.069c-.009-.008-.009-.026-.017-.034a.18.18 0 00-.035-.052c-.008-.017-.017-.026-.026-.043-.008-.018-.017-.026-.026-.043-.008-.018-.025-.035-.034-.052l-.026-.026-.052-.052-.026-.026a.376.376 0 00-.06-.052c-.009-.008-.026-.017-.035-.025-.017-.018-.034-.026-.051-.044a.794.794 0 00-.07-.043c-.008-.008-.017-.008-.025-.017l-.113-.052L2.105.092A1.164 1.164 0 00.577.714c-.25.595.026 1.277.621 1.528l5.646 2.382v25.533a4.77 4.77 0 004.152 4.722 4.708 4.708 0 00-.674 2.417A4.71 4.71 0 0015.027 42a4.715 4.715 0 004.704-4.704c0-.864-.233-1.684-.647-2.374h10.479a4.63 4.63 0 00-.648 2.374A4.71 4.71 0 0033.62 42a4.715 4.715 0 004.704-4.704 4.715 4.715 0 00-4.704-4.705H11.609a2.437 2.437 0 01-2.435-2.434v-3.16a4.82 4.82 0 002.434.657zm5.801 9.633a2.378 2.378 0 01-2.374 2.374 2.383 2.383 0 01-2.373-2.374 2.384 2.384 0 012.373-2.374 2.378 2.378 0 012.374 2.374zm18.593 0a2.378 2.378 0 01-2.374 2.374 2.384 2.384 0 01-2.373-2.374 2.384 2.384 0 012.373-2.374 2.378 2.378 0 012.374 2.374zM34.75 25.323H11.609a2.437 2.437 0 01-2.434-2.434V10.295l28.01 3.859v8.726a2.439 2.439 0 01-2.433 2.443z" fill="#595959"/></svg>