<svg width="17" height="17" fill="none" xmlns="http://www.w3.org/2000/svg"><path d="M8.5 17A8.503 8.503 0 010 8.5c0-2.27.884-4.405 2.49-6.01A8.444 8.444 0 018.5 0c2.27 0 4.405.884 6.01 2.49A8.444 8.444 0 0117 8.5a8.506 8.506 0 01-3.004 6.484A8.502 8.502 0 018.5 17zm0-15.938C4.399 1.063 1.062 4.4 1.062 8.5a7.442 7.442 0 002.629 5.674A7.44 7.44 0 0015.937 8.5c0-4.101-3.336-7.438-7.437-7.438z" fill="#FC413C"/><path d="M8.5 8.5a3.191 3.191 0 01-3.188-3.188A3.191 3.191 0 018.5 2.126a3.191 3.191 0 013.188 3.188A3.191 3.191 0 018.5 8.5zm0-5.313a2.127 2.127 0 00-2.125 2.126c0 1.171.953 2.125 2.125 2.125a2.127 2.127 0 002.125-2.125A2.127 2.127 0 008.5 3.188z" fill="#FC413C"/><path d="M13.653 15.11a.533.533 0 01-.516-.66 4.8 4.8 0 00.144-1.169c0-2.6-2.113-4.743-4.711-4.78L8.5 8.5h-.07c-2.598.038-4.711 2.182-4.711 4.781 0 .396.048.789.143 1.168a.531.531 0 01-1.03.26 5.865 5.865 0 01-.176-1.428c0-1.546.598-3.004 1.685-4.105a5.809 5.809 0 014.076-1.738h.166a5.809 5.809 0 014.076 1.738 5.81 5.81 0 011.685 4.105c0 .483-.06.963-.176 1.427a.531.531 0 01-.515.402z" fill="#FC413C"/></svg>