<?xml version="1.0" encoding="utf-8"?><svg viewBox="0 0 31 26" xmlns="http://www.w3.org/2000/svg" xmlns:xlink="http://www.w3.org/1999/xlink"><style>:root>svg{display:none}:root>svg:target{display:block}</style><svg viewBox="0 0 31 9" id="arrow" xmlns="http://www.w3.org/2000/svg"><path d="M29.951 4.91a.5.5 0 000-.707L26.77 1.021a.5.5 0 10-.708.707l2.829 2.829-2.829 2.828a.5.5 0 10.707.707l3.183-3.182zM0 5.057h29.598v-1H0v1z"/></svg><svg viewBox="0 0 21 16" id="comment" xmlns="http://www.w3.org/2000/svg"><path d="M20.292 10.436c0-1.789-1.252-3.35-3.116-4.194.11.39.173.792.184 1.206.186.11.366.23.534.36.94.725 1.459 1.658 1.459 2.628 0 .969-.517 1.902-1.459 2.626-1.031.796-2.418 1.234-3.904 1.234-1.002 0-1.958-.2-2.792-.572a10.54 10.54 0 01-1.61.189c1.138.854 2.69 1.381 4.402 1.381a7.77 7.77 0 003.032-.598l2.294 1.171-.463-2.34c.898-.84 1.439-1.917 1.439-3.091z"/><path d="M16.708 6.794a5.023 5.023 0 00-.184-1.206C15.723 2.74 12.434.604 8.5.604 3.967.605.29 3.44.29 6.936c0 1.53.704 2.932 1.875 4.028l-.604 3.048 2.989-1.525a10.132 10.132 0 004.385.772 10.439 10.439 0 001.61-.19c3.544-.7 6.164-3.18 6.164-6.133l-.002-.142zm-3.12 3.567c-1.244.958-2.886 1.52-4.662 1.597a9.42 9.42 0 01-1.24-.025c-1.626-.136-3.12-.682-4.272-1.571-1.225-.945-1.9-2.16-1.9-3.424 0-1.264.675-2.48 1.9-3.424C4.757 2.478 6.564 1.907 8.5 1.907c1.938 0 3.745.57 5.087 1.607.608.468 1.08 1.004 1.402 1.578.204.365.347.746.427 1.135.047.234.07.471.07.71 0 1.263-.673 2.479-1.898 3.423z"/><path d="M11.413 7.854a.898.898 0 100-1.796.898.898 0 000 1.796zM8.5 7.854a.898.898 0 100-1.796.898.898 0 000 1.796zM5.589 7.854a.899.899 0 100-1.797.899.899 0 000 1.797z"/></svg><svg viewBox="0 0 18 18" id="grid" xmlns="http://www.w3.org/2000/svg"><g clip-path="url(#cclip0)"><path d="M3.75 0h-3A.75.75 0 000 .75v3c0 .414.336.75.75.75h3a.75.75 0 00.75-.75v-3A.75.75 0 003.75 0zM3.75 6.75h-3A.75.75 0 000 7.5v3c0 .414.336.75.75.75h3a.75.75 0 00.75-.75v-3a.75.75 0 00-.75-.75zM3.75 13.5h-3a.75.75 0 00-.75.75v3c0 .414.336.75.75.75h3a.75.75 0 00.75-.75v-3a.75.75 0 00-.75-.75zM10.5 0h-3a.75.75 0 00-.75.75v3c0 .414.336.75.75.75h3a.75.75 0 00.75-.75v-3A.75.75 0 0010.5 0zM10.5 6.75h-3a.75.75 0 00-.75.75v3c0 .414.336.75.75.75h3a.75.75 0 00.75-.75v-3a.75.75 0 00-.75-.75zM10.5 13.5h-3a.75.75 0 00-.75.75v3c0 .414.336.75.75.75h3a.75.75 0 00.75-.75v-3a.75.75 0 00-.75-.75zM17.25 0h-3a.75.75 0 00-.75.75v3c0 .414.336.75.75.75h3a.75.75 0 00.75-.75v-3a.75.75 0 00-.75-.75zM17.25 6.75h-3a.75.75 0 00-.75.75v3c0 .414.336.75.75.75h3a.75.75 0 00.75-.75v-3a.75.75 0 00-.75-.75zM17.25 13.5h-3a.75.75 0 00-.75.75v3c0 .414.336.75.75.75h3a.75.75 0 00.75-.75v-3a.75.75 0 00-.75-.75z"/></g><defs><clipPath id="cclip0"><path fill="#fff" d="M0 0h18v18H0z"/></clipPath></defs></svg><svg viewBox="0 0 22 17" id="list" xmlns="http://www.w3.org/2000/svg"><path d="M20.215 16.35H6.173a1.048 1.048 0 110-2.096h14.042a1.048 1.048 0 010 2.095zM20.215 9.772H6.173a1.048 1.048 0 110-2.096h14.042a1.048 1.048 0 010 2.096zM20.215 3.195H6.173a1.048 1.048 0 110-2.096h14.042a1.048 1.048 0 010 2.096zM1.67 3.635a1.407 1.407 0 100-2.814 1.407 1.407 0 000 2.814zM1.67 10.131a1.407 1.407 0 10.001-2.814 1.407 1.407 0 000 2.814zM1.67 16.628a1.407 1.407 0 100-2.815 1.407 1.407 0 000 2.815z"/></svg><svg viewBox="0 0 17 24" id="ok" xmlns="http://www.w3.org/2000/svg"><path d="M8.5 0C5.055 0 2.25 2.691 2.25 6s2.804 6 6.25 6c3.448 0 6.25-2.691 6.25-6S11.949 0 8.5 0zm0 10.5c-2.584 0-4.687-2.019-4.687-4.5s2.103-4.5 4.688-4.5c2.584 0 4.687 2.019 4.687 4.5s-2.103 4.5-4.687 4.5zM14.61 22.82l-5.469-7.5c-.29-.4-.985-.4-1.28 0l-5.468 7.5a.73.73 0 00.192 1.043.8.8 0 001.088-.183L8.5 17.058l4.83 6.622c.151.209.393.32.639.32.156 0 .31-.044.45-.137a.73.73 0 00.19-1.044z"/><path d="M16.233 12.363a.805.805 0 00-1.104 0c-3.658 3.51-9.603 3.51-13.258 0a.805.805 0 00-1.105 0 .73.73 0 000 1.06c2.133 2.046 4.935 3.07 7.735 3.07 2.8 0 5.601-1.024 7.732-3.07a.73.73 0 000-1.06z"/></svg><svg viewBox="0 0 7 8" id="pag-arrow-next" xmlns="http://www.w3.org/2000/svg"><path d="M6.79 3.956l-6 3.464V.492l6 3.464z"/></svg><svg viewBox="0 0 7 8" id="pag-arrow-prev" xmlns="http://www.w3.org/2000/svg"><path d="M.578 3.956l6-3.464V7.42l-6-3.464z"/></svg><svg viewBox="0 0 15 22" id="reset" xmlns="http://www.w3.org/2000/svg"><path d="M.905 3.32v17.502c0 .424.382.768.854.768h11.573c.472 0 .853-.344.853-.768l-.02-17.502H.905zm2.893 16.973h-1.28V4.35h1.28v15.943zm4.387 0h-1.28V4.35h1.28v15.943zm4.554 0h-1.28V4.35h1.28v15.943zm2.225-18.94V2.55H.127V1.354h4.527V.59h5.785v.764h4.526z"/></svg><svg viewBox="0 0 26 26" id="telegram" xmlns="http://www.w3.org/2000/svg"><g clip-path="url(#iclip0)"><path d="M25.487 3.263c-.305-.374-.763-.58-1.288-.58-.286 0-.588.06-.9.18L2.139 10.94c-1.123.428-1.274 1.071-1.265 1.417.01.345.198.978 1.343 1.343a.79.79 0 00.02.006l4.39 1.256L9 21.752c.324.925 1.05 1.5 1.896 1.5.534 0 1.059-.224 1.518-.646l2.715-2.5 3.938 3.17.002.002.037.03.01.008c.438.34.916.519 1.383.519.912 0 1.638-.675 1.85-1.72l3.467-17.12c.139-.688.022-1.303-.33-1.732zM8.095 14.725l8.469-4.327-5.274 5.604a.732.732 0 00-.177.326l-1.017 4.119-2.001-5.722zm3.326 6.803c-.035.032-.07.061-.105.088l.943-3.821 1.716 1.382-2.553 2.351zM24.38 4.703l-3.467 17.122c-.034.164-.14.545-.414.545-.136 0-.306-.074-.48-.208l-4.462-3.593-.003-.002L12.9 16.43l7.626-8.103a.732.732 0 00-.867-1.154L7.116 13.58l-4.45-1.273L23.823 4.23c.18-.068.304-.083.377-.083.045 0 .124.006.154.042.039.048.088.21.027.513z"/></g><defs><clipPath id="iclip0"><path fill="#fff" transform="translate(.873 .78)" d="M0 0h25v25H0z"/></clipPath></defs></svg><svg viewBox="0 0 26 25" id="viber" xmlns="http://www.w3.org/2000/svg"><path d="M24.291 8.824A8.76 8.76 0 0021.7 2.59 8.761 8.761 0 0015.468 0h-5.229C7.892 0 5.678.92 4.007 2.591a8.762 8.762 0 00-2.591 6.233v4.11c0 1.818.555 3.567 1.604 5.058a8.854 8.854 0 003.623 2.994v2.36c0 1.22.683 1.654 1.268 1.654.418 0 .836-.206 1.243-.613l2.63-2.63h3.684c2.348 0 4.56-.92 6.232-2.591a8.761 8.761 0 002.591-6.233v-4.11zm-8.823 11.468H11.48a.732.732 0 00-.518.214L8.12 23.351l-.012.011v-2.866a.732.732 0 00-.47-.683c-2.845-1.086-4.756-3.85-4.756-6.88v-4.11c0-1.956.768-3.802 2.162-5.196a7.306 7.306 0 015.196-2.162h5.228c1.957 0 3.803.768 5.197 2.162a7.305 7.305 0 012.162 5.197v4.11c0 4.057-3.3 7.358-7.358 7.358z"/><path d="M14.801 11.98a.732.732 0 00-1.035 0l-.592.591-2.293-2.292.592-.592a.733.733 0 000-1.036L8.699 5.878a.732.732 0 00-1.035 0L5.722 7.819a2.697 2.697 0 000 3.81l6.102 6.102a2.676 2.676 0 001.905.786c.72 0 1.397-.279 1.905-.786l1.941-1.942a.733.733 0 000-1.035l-2.774-2.774zm-.203 4.715c-.231.23-.54.357-.87.357a1.22 1.22 0 01-.868-.357l-6.102-6.102a1.23 1.23 0 010-1.738L8.18 7.431 9.92 9.17l-.591.592a.733.733 0 000 1.036l3.328 3.328a.733.733 0 001.036 0l.591-.592 1.738 1.738-1.423 1.424zM13.031 3.24a.732.732 0 100 1.465c1.676 0 3.252.653 4.438 1.838a6.234 6.234 0 011.838 4.438.733.733 0 001.465 0 7.69 7.69 0 00-2.267-5.474A7.69 7.69 0 0013.03 3.24z"/><path d="M16.169 10.98a.733.733 0 001.465 0 4.608 4.608 0 00-4.603-4.602.732.732 0 100 1.465 3.141 3.141 0 013.138 3.137z"/></svg><svg viewBox="0 0 27 17" id="vk" xmlns="http://www.w3.org/2000/svg"><path d="M13.663 16.938c3.906 0 2.513-2.473 2.815-3.184-.005-.531-.01-1.042.009-1.352.247.07.831.365 2.037 1.537 1.862 1.88 2.338 2.998 3.842 2.998h2.769c.877 0 1.334-.363 1.562-.668.22-.294.437-.812.2-1.617-.617-1.94-4.22-5.29-4.443-5.642.034-.066.088-.152.116-.197h-.003c.712-.94 3.425-5.005 3.824-6.632a.022.022 0 00.003-.01c.216-.742.018-1.223-.187-1.495-.308-.408-.799-.614-1.462-.614h-2.768c-.927 0-1.63.467-1.986 1.319-.595 1.513-2.267 4.625-3.52 5.726a72.123 72.123 0 01.008-3.637c.04-1.727.171-3.408-1.621-3.408h-4.352C9.384.063 8.31 1.29 9.472 2.745c1.018 1.275.366 1.986.585 5.525-.854-.916-2.376-3.392-3.451-6.557C6.305.857 5.848.063 4.562.063H1.793C.671.064 0 .677 0 1.7c0 2.302 5.095 15.238 13.663 15.238zM4.562 1.75c.244 0 .269 0 .45.514 1.101 3.244 3.572 8.043 5.376 8.043 1.356 0 1.356-1.39 1.356-1.913l-.001-4.164c-.075-1.378-.576-2.065-.906-2.481l3.947.004c.002.02-.023 4.607.01 5.719 0 1.578 1.254 2.483 3.21.503 2.065-2.33 3.492-5.813 3.55-5.955.084-.202.157-.271.423-.271h2.78c-.001.003-.001.007-.003.01-.253 1.181-2.751 4.946-3.587 6.115-.014.018-.026.037-.038.056-.368.6-.668 1.264.05 2.198h.001c.066.079.236.263.483.52.77.794 3.409 3.51 3.643 4.59-.155.024-.324.006-2.94.012-.557 0-.992-.832-2.654-2.509-1.494-1.453-2.463-2.047-3.347-2.047-1.714 0-1.59 1.391-1.573 3.075.005 1.824-.006 1.247.006 1.362-.1.04-.387.118-1.135.118-7.138 0-11.787-11.33-11.965-13.495.062-.006.913-.003 2.864-.004z"/></svg></svg>