<?xml version="1.0" encoding="utf-8"?><svg viewBox="0 0 26 26" xmlns="http://www.w3.org/2000/svg" xmlns:xlink="http://www.w3.org/1999/xlink"><style>:root>svg{display:none}:root>svg:target{display:block}</style><svg viewBox="0 0 21 16" id="comment" xmlns="http://www.w3.org/2000/svg"><path d="M20.292 10.436c0-1.789-1.252-3.35-3.116-4.194.11.39.173.792.184 1.206.186.11.366.23.534.36.94.725 1.459 1.658 1.459 2.628 0 .969-.517 1.902-1.459 2.626-1.031.796-2.418 1.234-3.904 1.234-1.002 0-1.958-.2-2.792-.572a10.54 10.54 0 01-1.61.189c1.138.854 2.69 1.381 4.402 1.381a7.77 7.77 0 003.032-.598l2.294 1.171-.463-2.34c.898-.84 1.439-1.917 1.439-3.091z"/><path d="M16.708 6.794a5.023 5.023 0 00-.184-1.206C15.723 2.74 12.434.604 8.5.604 3.967.605.29 3.44.29 6.936c0 1.53.704 2.932 1.875 4.028l-.604 3.048 2.989-1.525a10.132 10.132 0 004.385.772 10.439 10.439 0 001.61-.19c3.544-.7 6.164-3.18 6.164-6.133l-.002-.142zm-3.12 3.567c-1.244.958-2.886 1.52-4.662 1.597a9.42 9.42 0 01-1.24-.025c-1.626-.136-3.12-.682-4.272-1.571-1.225-.945-1.9-2.16-1.9-3.424 0-1.264.675-2.48 1.9-3.424C4.757 2.478 6.564 1.907 8.5 1.907c1.938 0 3.745.57 5.087 1.607.608.468 1.08 1.004 1.402 1.578.204.365.347.746.427 1.135.047.234.07.471.07.71 0 1.263-.673 2.479-1.898 3.423z"/><path d="M11.413 7.854a.898.898 0 100-1.796.898.898 0 000 1.796zM8.5 7.854a.898.898 0 100-1.796.898.898 0 000 1.796zM5.589 7.854a.899.899 0 100-1.797.899.899 0 000 1.797z"/></svg><svg viewBox="0 0 26 26" id="telegram" xmlns="http://www.w3.org/2000/svg"><g clip-path="url(#bclip0)"><path d="M25.487 3.263c-.305-.374-.763-.58-1.288-.58-.286 0-.588.06-.9.18L2.139 10.94c-1.123.428-1.274 1.071-1.265 1.417.01.345.198.978 1.343 1.343a.79.79 0 00.02.006l4.39 1.256L9 21.752c.324.925 1.05 1.5 1.896 1.5.534 0 1.059-.224 1.518-.646l2.715-2.5 3.938 3.17.002.002.037.03.01.008c.438.34.916.519 1.383.519.912 0 1.638-.675 1.85-1.72l3.467-17.12c.139-.688.022-1.303-.33-1.732zM8.095 14.725l8.469-4.327-5.274 5.604a.732.732 0 00-.177.326l-1.017 4.119-2.001-5.722zm3.326 6.803c-.035.032-.07.061-.105.088l.943-3.821 1.716 1.382-2.553 2.351zM24.38 4.703l-3.467 17.122c-.034.164-.14.545-.414.545-.136 0-.306-.074-.48-.208l-4.462-3.593-.003-.002L12.9 16.43l7.626-8.103a.732.732 0 00-.867-1.154L7.116 13.58l-4.45-1.273L23.823 4.23c.18-.068.304-.083.377-.083.045 0 .124.006.154.042.039.048.088.21.027.513z"/></g><defs><clipPath id="bclip0"><path fill="#fff" transform="translate(.873 .78)" d="M0 0h25v25H0z"/></clipPath></defs></svg><svg viewBox="0 0 26 25" id="viber" xmlns="http://www.w3.org/2000/svg"><path d="M24.291 8.824A8.76 8.76 0 0021.7 2.59 8.761 8.761 0 0015.468 0h-5.229C7.892 0 5.678.92 4.007 2.591a8.762 8.762 0 00-2.591 6.233v4.11c0 1.818.555 3.567 1.604 5.058a8.854 8.854 0 003.623 2.994v2.36c0 1.22.683 1.654 1.268 1.654.418 0 .836-.206 1.243-.613l2.63-2.63h3.684c2.348 0 4.56-.92 6.232-2.591a8.761 8.761 0 002.591-6.233v-4.11zm-8.823 11.468H11.48a.732.732 0 00-.518.214L8.12 23.351l-.012.011v-2.866a.732.732 0 00-.47-.683c-2.845-1.086-4.756-3.85-4.756-6.88v-4.11c0-1.956.768-3.802 2.162-5.196a7.306 7.306 0 015.196-2.162h5.228c1.957 0 3.803.768 5.197 2.162a7.305 7.305 0 012.162 5.197v4.11c0 4.057-3.3 7.358-7.358 7.358z"/><path d="M14.801 11.98a.732.732 0 00-1.035 0l-.592.591-2.293-2.292.592-.592a.733.733 0 000-1.036L8.699 5.878a.732.732 0 00-1.035 0L5.722 7.819a2.697 2.697 0 000 3.81l6.102 6.102a2.676 2.676 0 001.905.786c.72 0 1.397-.279 1.905-.786l1.941-1.942a.733.733 0 000-1.035l-2.774-2.774zm-.203 4.715c-.231.23-.54.357-.87.357a1.22 1.22 0 01-.868-.357l-6.102-6.102a1.23 1.23 0 010-1.738L8.18 7.431 9.92 9.17l-.591.592a.733.733 0 000 1.036l3.328 3.328a.733.733 0 001.036 0l.591-.592 1.738 1.738-1.423 1.424zM13.031 3.24a.732.732 0 100 1.465c1.676 0 3.252.653 4.438 1.838a6.234 6.234 0 011.838 4.438.733.733 0 001.465 0 7.69 7.69 0 00-2.267-5.474A7.69 7.69 0 0013.03 3.24z"/><path d="M16.169 10.98a.733.733 0 001.465 0 4.608 4.608 0 00-4.603-4.602.732.732 0 100 1.465 3.141 3.141 0 013.138 3.137z"/></svg></svg>