<svg width="46" height="51" viewBox="0 0 46 51" fill="none" xmlns="http://www.w3.org/2000/svg">
<path d="M22.3254 47.5324L21.1396 48.7182C20.613 49.2447 20.9934 50.1408 21.7289 50.1408C21.9421 50.1408 22.1555 50.0594 22.3182 49.8967L24.9224 47.2925C25.2479 46.9671 25.2479 46.4395 24.9224 46.1141L22.3182 43.5099C21.9928 43.1845 21.4652 43.1845 21.1398 43.5099C20.8142 43.8354 20.8142 44.363 21.1398 44.6884L22.3169 45.8656C11.0475 45.678 1.93725 36.454 1.93725 25.1408C1.93725 20.4659 3.456 16.0533 6.32923 12.3801C6.61277 12.0176 6.54881 11.4939 6.18621 11.2103C5.82381 10.9269 5.30006 10.9908 5.01641 11.3534C1.91173 15.3224 0.27058 20.09 0.27058 25.1408C0.27058 37.4057 10.1034 47.3511 22.3254 47.5324ZM7.74183 10.4114C6.99558 10.4114 6.62194 9.49493 7.16631 8.97524C7.54391 8.61379 8.06266 8.66951 8.36235 8.98108C8.89048 9.53014 8.45715 10.4114 7.74183 10.4114ZM27.2498 30.0366H29.7498C30.21 30.0366 30.5831 30.4097 30.5831 30.8699C30.5831 31.3301 30.21 31.7033 29.7498 31.7033H27.2498C26.7895 31.7033 26.4164 31.3301 26.4164 30.8699C26.4164 30.4097 26.7895 30.0366 27.2498 30.0366ZM13.3956 36.0783C13.3956 35.6181 13.7687 35.2449 14.2289 35.2449H31.1039C32.0229 35.2449 32.7706 34.4972 32.7706 33.5783V16.7033C32.7706 15.7843 32.0229 15.0366 31.1039 15.0366H26.8331V20.8699C26.8331 21.4978 26.1631 21.9002 25.6088 21.6059L22.6664 20.0426L19.724 21.6058C19.1694 21.9005 18.4998 21.4973 18.4998 20.8699V17.9533C18.4998 17.4931 18.8729 17.1199 19.3331 17.1199C19.7933 17.1199 20.1664 17.4931 20.1664 17.9533V19.4836L22.2755 18.3632C22.5201 18.2333 22.8129 18.2333 23.0575 18.3632L25.1664 19.4836V15.0366H14.2289C13.31 15.0366 12.5622 15.7843 12.5622 16.7033V31.4949C12.5622 31.9551 12.1891 32.3283 11.7289 32.3283C11.2687 32.3283 10.8956 31.9551 10.8956 31.4949V16.7033C10.8956 14.8652 12.3909 13.3699 14.2289 13.3699H31.1039C32.9419 13.3699 34.4373 14.8652 34.4373 16.7033V33.5783C34.4373 35.4163 32.9419 36.9116 31.1039 36.9116H14.2289C13.7687 36.9116 13.3956 36.5385 13.3956 36.0783ZM43.3956 25.1408C43.3956 13.8275 34.2854 4.60347 23.016 4.41608L24.1932 5.59327C24.7199 6.11972 24.3395 7.01577 23.6039 7.01577C23.3907 7.01577 23.1774 6.93441 23.0146 6.7717L20.4105 4.16754C20.085 3.84212 20.085 3.31452 20.4105 2.9891L23.0146 0.384932C23.3401 0.059515 23.8677 0.059515 24.1931 0.384932C24.5186 0.710348 24.5186 1.23795 24.1931 1.56337L23.0074 2.7491C35.2213 2.93024 45.0623 12.8678 45.0623 25.1408C45.0623 30.1914 43.4212 34.9591 40.3164 38.9283C40.0327 39.2911 39.5088 39.3546 39.1466 39.0713C38.7841 38.7877 38.7201 38.264 39.0036 37.9015C41.8769 34.2283 43.3956 29.8157 43.3956 25.1408ZM38.1939 40.1281C38.4931 40.4415 38.5253 40.963 38.1487 41.3233C37.8172 41.6422 37.2897 41.6322 36.9704 41.3004C36.6513 40.9686 36.6616 40.4411 36.9933 40.122C37.3767 39.7552 37.8964 39.8163 38.1939 40.1281Z" fill="#437FC8"/>
</svg>
