<svg width="50" height="50" viewBox="0 0 50 50" fill="none" xmlns="http://www.w3.org/2000/svg">
<g clip-path="url(#clip0)">
<path d="M25 0.140625C11.4692 0.140625 0.5 11.1098 0.5 24.6406C0.5 38.1715 11.4692 49.1406 25 49.1406C38.5308 49.1406 49.5 38.1715 49.5 24.6406C49.4848 11.1162 38.5244 0.155778 25 0.140625ZM25 47.5073C12.3712 47.5073 2.13333 37.2695 2.13333 24.6406C2.13333 12.0118 12.3712 1.77396 25 1.77396C37.6288 1.77396 47.8667 12.0118 47.8667 24.6406C47.8523 37.2635 37.6228 47.4929 25 47.5073Z" fill="#437FC8"/>
<path d="M13.6416 23.089C13.697 23.1002 13.7536 23.1062 13.8099 23.1062C14.1959 23.1054 14.5288 22.8346 14.6078 22.457C14.7103 21.9729 14.8466 21.4972 15.0161 21.0326C15.1194 20.7575 15.0668 20.448 14.8785 20.2223C14.6903 19.9966 14.3952 19.8898 14.1061 19.942C13.8166 19.9946 13.5782 20.1984 13.4809 20.4755C13.2867 21.0127 13.13 21.563 13.0127 22.122C12.9202 22.5627 13.2013 22.9949 13.6416 23.089Z" fill="#437FC8"/>
<path d="M15.7324 18.7605C15.9947 18.7609 16.2408 18.6357 16.3947 18.4236C16.6854 18.0228 17.0028 17.6428 17.3454 17.2859C17.6576 16.9605 17.6472 16.4433 17.3218 16.1311C16.9964 15.8188 16.4792 15.8292 16.167 16.1546C15.7722 16.5641 15.4066 17.0008 15.0728 17.4614C14.8926 17.7098 14.8666 18.038 15.0058 18.3111C15.145 18.5847 15.4257 18.7569 15.7324 18.7573V18.7605Z" fill="#437FC8"/>
<path d="M19.2571 15.5701C19.4006 15.5697 19.5418 15.5314 19.6654 15.4588C20.0909 15.2096 20.5339 14.9911 20.9909 14.8057C21.4092 14.6358 21.6102 14.1589 21.4403 13.7406C21.27 13.3227 20.7935 13.1217 20.3752 13.2916C19.8476 13.5069 19.3352 13.7589 18.8424 14.0452C18.5233 14.2306 18.3678 14.6067 18.4635 14.9632C18.5588 15.3197 18.8818 15.5677 19.2507 15.5685L19.2571 15.5701Z" fill="#437FC8"/>
<path d="M36.7707 21.2811C36.7659 21.2596 36.7707 21.2392 36.7647 21.2181C36.7503 21.1659 36.7296 21.1144 36.7144 21.0622C36.6989 21.0099 36.675 20.9453 36.6562 20.8863C36.5573 20.5809 36.4465 20.279 36.3241 19.9799C36.3017 19.9261 36.2806 19.8715 36.2579 19.8164C36.2284 19.7486 36.2048 19.6793 36.1761 19.6123C36.1618 19.5899 36.1462 19.5684 36.1295 19.5481C35.6733 18.548 35.0847 17.6141 34.3793 16.7711C34.3697 16.7583 34.3673 16.742 34.3566 16.7288C33.9885 16.295 33.5909 15.887 33.1667 15.5078C33.1403 15.4907 33.1132 15.4747 33.0849 15.4604C32.2746 14.7462 31.3734 14.142 30.4048 13.6639C30.3829 13.6444 30.3598 13.6268 30.3354 13.6109C30.1783 13.5347 30.0168 13.4685 29.8557 13.3991C29.8095 13.3788 29.7636 13.3569 29.7162 13.3373C29.3967 13.2042 29.0753 13.0801 28.7476 12.9753C28.7388 12.9753 28.7304 12.9753 28.7216 12.9753C27.6657 12.6427 26.5695 12.4549 25.463 12.4178C25.4378 12.4178 25.4163 12.4014 25.3912 12.4006C25.3094 12.4006 25.2221 12.4006 25.1388 12.4006C25.0921 12.4006 25.0474 12.3931 25.0008 12.3931C24.9876 12.3931 24.9773 12.3998 24.9641 12.4006C24.537 12.3994 24.1099 12.4202 23.6853 12.4632C23.2554 12.5103 22.9368 12.8843 22.9587 13.3162C22.9803 13.7477 23.3344 14.0878 23.767 14.0918C23.7961 14.0918 23.8252 14.0902 23.8543 14.087C24.2714 14.0447 24.6909 14.0264 25.11 14.032C26.479 14.0431 27.832 14.3207 29.0949 14.8486L29.1838 14.8881C30.3227 15.3814 31.3666 16.0697 32.2682 16.9222C32.4888 17.13 32.6977 17.3469 32.8987 17.5758C33.6719 18.4323 34.3003 19.4089 34.7593 20.4676C34.7773 20.5083 34.7928 20.5494 34.81 20.5908C34.9188 20.8516 35.0161 21.1176 35.1022 21.3888C35.1186 21.4394 35.1365 21.49 35.1521 21.5407C35.4599 22.5452 35.6167 23.5899 35.6167 24.6407C35.6167 24.9673 35.5963 25.2891 35.5676 25.6077C35.5604 25.6894 35.5513 25.7708 35.5425 25.8525C35.2303 28.5701 33.8796 31.0619 31.7734 32.8073L31.7303 32.844C30.6824 33.7061 29.4789 34.3589 28.1849 34.7673C28.1482 34.7788 28.1099 34.7884 28.0733 34.7992C27.8045 34.8809 27.5309 34.9503 27.2566 35.0109L27.054 35.054C21.3856 36.1777 15.8627 32.5513 14.6405 26.9036L16.4685 27.8256C16.872 28.0274 17.3625 27.8635 17.5643 27.4599C17.766 27.056 17.6021 26.5655 17.1982 26.3637L13.9315 24.7304C13.8207 24.6762 13.6986 24.6482 13.5746 24.6486C13.5631 24.6451 13.5511 24.6423 13.5387 24.6407C13.5152 24.6459 13.4917 24.6526 13.4686 24.6602C13.384 24.669 13.3011 24.6913 13.2237 24.7264C13.0566 24.7998 12.9195 24.9274 12.8349 25.0889L11.2016 28.3555C10.9998 28.7595 11.1637 29.25 11.5673 29.4517C11.9712 29.6531 12.4617 29.4896 12.6635 29.0857L13.2213 27.9703C13.453 28.791 13.7716 29.5849 14.172 30.3386C14.1776 30.3613 14.1843 30.3837 14.1923 30.4056C14.4607 30.9088 14.7641 31.3921 15.1003 31.8527C15.1206 31.8806 15.1525 31.8918 15.1757 31.9165C15.8105 32.7651 16.5514 33.5291 17.3804 34.189C17.4083 34.2285 17.4398 34.2652 17.4745 34.2987C17.9227 34.6512 18.3953 34.9714 18.8889 35.2573C18.9496 35.2928 19.0146 35.3203 19.0823 35.3391C19.9943 35.8471 20.9677 36.2367 21.9782 36.4979C22.0021 36.511 22.0268 36.5226 22.0519 36.533C22.6058 36.6698 23.1685 36.7678 23.7359 36.8261H23.8173C24.2084 36.8655 24.604 36.8875 25.004 36.8875C25.6695 36.8831 26.3335 36.8241 26.9894 36.7116H26.9994C27.0472 36.712 27.0951 36.7076 27.1421 36.6989C27.2131 36.6865 27.2825 36.6678 27.3535 36.6538C27.4444 36.6367 27.5333 36.6163 27.6231 36.5968C27.9325 36.5298 28.2375 36.4508 28.5386 36.3607C28.5861 36.3468 28.6343 36.3352 28.6806 36.3204C28.7272 36.3061 28.7623 36.2985 28.7998 36.2861C28.8185 36.2798 28.8309 36.2658 28.8481 36.2586C29.902 35.9117 30.9037 35.4224 31.8256 34.8047C31.8372 34.7976 31.8495 34.796 31.8607 34.7884C32.1737 34.577 32.474 34.3442 32.7683 34.1033C32.787 34.0878 32.805 34.0714 32.8245 34.0559C32.9517 33.9498 33.0817 33.8469 33.2041 33.7369C33.2261 33.7109 33.246 33.6838 33.264 33.6551C34.0495 32.9369 34.7386 32.1199 35.3144 31.2246C35.3443 31.1931 35.3714 31.1596 35.3961 31.1242C35.698 30.6409 35.966 30.1372 36.198 29.6164C36.2064 29.5985 36.204 29.5797 36.2104 29.5618C36.6502 28.5601 36.9525 27.503 37.1088 26.4203C37.1192 26.3936 37.1284 26.3661 37.1355 26.3386C37.1495 26.2397 37.1559 26.1392 37.1674 26.0395C37.179 25.9398 37.1886 25.8437 37.1977 25.7456C37.2312 25.3764 37.254 25.0055 37.254 24.6351V24.5876C37.254 24.5828 37.254 24.5777 37.254 24.5721C37.2436 23.4579 37.0813 22.3506 36.7707 21.2811Z" fill="#437FC8"/>
<path d="M25 17.2905C24.549 17.2905 24.1833 17.6562 24.1833 18.1072V24.6405C24.1833 24.8571 24.2695 25.0648 24.4226 25.2179L27.6893 28.4846C28.0099 28.794 28.5191 28.7897 28.8341 28.4746C29.1491 28.1596 29.1535 27.6504 28.8441 27.3298L25.8167 24.3024V18.1072C25.8167 17.6562 25.451 17.2905 25 17.2905Z" fill="#437FC8"/>
</g>
<defs>
<clipPath id="clip0">
<rect width="49" height="49" fill="white" transform="translate(0.5 0.140625)"/>
</clipPath>
</defs>
</svg>
