<svg width="43" height="43" viewBox="0 0 43 43" fill="none" xmlns="http://www.w3.org/2000/svg">
<path d="M38.9304 13.5509C38.9831 13.0766 38.9285 12.5964 38.7705 12.146C38.6126 11.6956 38.3555 11.2865 38.0181 10.9489C37.6807 10.6114 37.2717 10.354 36.8214 10.1958C36.3711 10.0376 35.891 9.98266 35.4167 10.0351C35.4293 9.91969 35.4357 9.80371 35.4358 9.68765C35.4358 8.84186 35.0999 8.03072 34.5018 7.43266C33.9037 6.8346 33.0926 6.49861 32.2468 6.49861C32.1307 6.49878 32.0148 6.50519 31.8994 6.5178C31.9715 5.86147 31.8381 5.19893 31.5174 4.62173C31.1968 4.04453 30.7048 3.58116 30.1094 3.29565C29.514 3.01014 28.8447 2.91657 28.1939 3.02788C27.543 3.1392 26.9428 3.44989 26.4762 3.91704L24.0712 6.32202C23.713 5.84503 23.3217 5.39382 22.9002 4.97172L20.0877 2.15922C19.0235 1.09496 17.58 0.49707 16.0749 0.49707C14.5698 0.49707 13.1264 1.09496 12.0621 2.15922C11.9968 2.22451 11.945 2.30202 11.9097 2.38733C11.8744 2.47263 11.8562 2.56406 11.8562 2.6564C11.8562 2.74873 11.8744 2.84017 11.9097 2.92547C11.945 3.01078 11.9968 3.08829 12.0621 3.15357L13.0812 4.17269C14.3908 5.48556 15.331 7.12056 15.8069 8.91277C16.2828 10.705 16.2777 12.591 15.7921 14.3806C15.5132 15.4034 15.3718 16.4588 15.3718 17.5189V22.0526L13.9656 23.4589L13.7596 23.253C13.6277 23.1211 13.4489 23.047 13.2624 23.047C13.076 23.047 12.8971 23.1211 12.7653 23.253L10.4499 25.5683L10.244 25.3624C10.1121 25.2305 9.93328 25.1564 9.74681 25.1564C9.56033 25.1564 9.38149 25.2305 9.24963 25.3624L0.812134 33.7999L1.80648 34.7942L9.74681 26.8539L21.4087 38.5158L18.3903 41.5342L19.3846 42.5286L22.9002 39.0129C22.9655 38.9477 23.0173 38.8702 23.0527 38.7848C23.088 38.6995 23.1062 38.6081 23.1062 38.5158C23.1062 38.4234 23.088 38.332 23.0527 38.2467C23.0173 38.1614 22.9655 38.0839 22.9002 38.0186L21.9912 37.1095L24.3065 34.7942C24.3718 34.7289 24.4236 34.6514 24.4589 34.5661C24.4943 34.4808 24.5124 34.3894 24.5124 34.297C24.5124 34.2047 24.4943 34.1133 24.4589 34.028C24.4236 33.9426 24.3718 33.8651 24.3065 33.7999L22.6943 32.1876L24.1006 30.7814H29.4343C29.5266 30.7814 29.6181 30.7632 29.7034 30.7279C29.7887 30.6925 29.8662 30.6407 29.9315 30.5754L36.9627 23.5442L36.9352 23.5166C37.0698 23.4187 37.1965 23.3103 37.3143 23.1926L41.533 18.9739C42.0003 18.5071 42.311 17.9068 42.4223 17.2558C42.5335 16.6047 42.4398 15.9353 42.154 15.3398C41.8683 14.7444 41.4046 14.2525 40.8271 13.932C40.2496 13.6115 39.5869 13.4784 38.9304 13.5509ZM35.7624 11.4213C36.115 11.4211 36.4598 11.5254 36.7531 11.7212C37.0463 11.917 37.2749 12.1954 37.4099 12.5212C37.5448 12.8469 37.5801 13.2054 37.5113 13.5512C37.4424 13.8971 37.2725 14.2147 37.0231 14.4639L32.8043 18.6827C32.47 19.017 32.0165 19.2048 31.5437 19.2048C31.0709 19.2048 30.6174 19.017 30.283 18.6827C29.9487 18.3483 29.7609 17.8949 29.7609 17.422C29.7609 16.9492 29.9487 16.4957 30.283 16.1614L34.5018 11.9426C34.6672 11.777 34.8638 11.6457 35.0801 11.5562C35.2964 11.4667 35.5283 11.4209 35.7624 11.4213ZM33.5074 8.42701C33.8413 8.76162 34.0288 9.21498 34.0288 9.68765C34.0288 10.1603 33.8413 10.6137 33.5074 10.9483L29.2887 15.167C28.9544 15.5014 28.5009 15.6892 28.0281 15.6892C27.5552 15.6892 27.1018 15.5014 26.7674 15.167C26.4331 14.8327 26.2452 14.3792 26.2452 13.9064C26.2452 13.4336 26.4331 12.9801 26.7674 12.6458L30.9862 8.42701C31.3208 8.09319 31.7741 7.90572 32.2468 7.90572C32.7195 7.90572 33.1728 8.09319 33.5074 8.42701ZM27.4705 4.91139C27.8049 4.57704 28.2584 4.38921 28.7312 4.38921C29.204 4.38921 29.6575 4.57704 29.9918 4.91139C30.3262 5.24573 30.514 5.69919 30.514 6.17202C30.514 6.64485 30.3262 7.09832 29.9918 7.43266L25.7731 11.6514C25.6075 11.817 25.411 11.9483 25.1947 12.0379C24.9784 12.1275 24.7466 12.1736 24.5124 12.1736C24.2783 12.1736 24.0465 12.1275 23.8302 12.0379C23.6139 11.9483 23.4173 11.817 23.2518 11.6514C23.0862 11.4859 22.9549 11.2893 22.8653 11.073C22.7757 10.8567 22.7296 10.6249 22.7296 10.3908C22.7296 10.1567 22.7757 9.92482 22.8653 9.70852C22.9549 9.49222 23.0862 9.29568 23.2518 9.13014L27.4705 4.91139ZM20.9968 36.1152L11.4443 26.5626L13.2624 24.7445L22.815 34.297L20.9968 36.1152ZM29.143 29.3751H23.8093C23.717 29.3751 23.6255 29.3933 23.5402 29.4287C23.4549 29.464 23.3774 29.5158 23.3121 29.5811L21.6999 31.1933L14.9599 24.4533L16.5721 22.8411C16.6374 22.7758 16.6892 22.6983 16.7245 22.613C16.7599 22.5277 16.7781 22.4362 16.7781 22.3439V17.5189C16.7781 16.5838 16.9027 15.6528 17.1488 14.7506C17.6994 12.7218 17.7051 10.5837 17.1656 8.55194C16.626 6.52019 15.5602 4.66667 14.0756 3.17834L13.5946 2.69734C14.4174 2.11173 15.421 1.83628 16.4274 1.91979C17.4339 2.0033 18.3783 2.44037 19.0934 3.15357L21.9059 5.96607C22.3279 6.38842 22.7159 6.84348 23.0662 7.327L22.2575 8.13579C21.7898 8.60223 21.4786 9.20249 21.367 9.85351C21.2554 10.5045 21.3489 11.1742 21.6345 11.7697C21.9201 12.3653 22.3838 12.8574 22.9613 13.178C23.5388 13.4985 24.2017 13.6316 24.8582 13.559C24.8456 13.6744 24.8392 13.7903 24.839 13.9064C24.8379 14.4319 24.9672 14.9495 25.2156 15.4126V15.9658C25.2196 17.4503 24.9292 18.9209 24.3611 20.2925C23.793 21.664 22.9585 22.9092 21.9059 23.9561L22.9002 24.9504C25.0969 22.766 26.4127 19.8494 26.5968 16.757C27.0408 16.9803 27.531 17.0962 28.0281 17.0954C28.1441 17.0953 28.2601 17.0889 28.3755 17.0763C28.3229 17.5507 28.3777 18.0308 28.5358 18.4812C28.694 18.9316 28.9514 19.3406 29.289 19.678C29.6266 20.0154 30.0358 20.2726 30.4863 20.4305C30.9367 20.5883 31.4169 20.6428 31.8913 20.59C31.803 21.3852 32.0173 22.1845 32.4916 22.8288C32.966 23.4732 33.6655 23.9153 34.4511 24.0671L29.143 29.3751ZM40.5387 17.9795L36.3199 22.1983C35.9856 22.5326 35.5321 22.7205 35.0593 22.7205C34.5865 22.7205 34.133 22.5326 33.7987 22.1983C33.4643 21.8639 33.2765 21.4105 33.2765 20.9376C33.2765 20.4648 33.4643 20.0114 33.7987 19.677L38.0174 15.4583C38.3518 15.1239 38.8052 14.9361 39.2781 14.9361C39.7509 14.9361 40.2043 15.1239 40.5387 15.4583C40.873 15.7926 41.0609 16.2461 41.0609 16.7189C41.0609 17.1917 40.873 17.6452 40.5387 17.9795Z" fill="#437FC8"/>
</svg>
