<svg width="50" height="51" viewBox="0 0 50 51" fill="none" xmlns="http://www.w3.org/2000/svg">
<g clip-path="url(#clip0)">
<path d="M43.6489 21.5198L42.5876 19.1845C42.5277 19.0529 42.5277 18.9018 42.5876 18.7702L43.6489 16.4345C43.9979 15.6658 43.8182 14.7621 43.2014 14.1853L41.3273 12.434C41.2216 12.3352 41.164 12.1956 41.1689 12.051L41.2552 9.48716C41.2838 8.64335 40.7718 7.87698 39.9814 7.58057L37.5797 6.67916C37.4443 6.62843 37.3375 6.52162 37.2867 6.3862L36.3857 3.98447C36.0889 3.19406 35.3199 2.68137 34.4787 2.71074L31.9153 2.79734C31.7688 2.80153 31.6311 2.74431 31.5323 2.63864L29.7806 0.764487C29.2042 0.147652 28.3001 -0.0320199 27.5314 0.317406L25.1961 1.37827C25.0645 1.43816 24.9134 1.43778 24.7818 1.37827L22.4461 0.317406C21.6774 -0.0320199 20.7737 0.147652 20.1969 0.764487L18.4456 2.63864C18.3468 2.74431 18.2079 2.80229 18.0626 2.79734L15.4988 2.71074C14.6546 2.68289 13.889 3.19444 13.5922 3.98485L12.6908 6.38658C12.64 6.522 12.5332 6.62881 12.3978 6.67954L9.99606 7.58057C9.20566 7.87736 8.69373 8.64335 8.72234 9.48716L8.80893 12.051C8.81351 12.1956 8.75591 12.3352 8.65024 12.434L6.77647 14.1853C6.15963 14.7621 5.97958 15.6658 6.329 16.4345L7.38987 18.7698C7.44976 18.9014 7.44976 19.0525 7.38987 19.1845L6.329 21.5198C5.97958 22.2885 6.15925 23.1922 6.77608 23.769L8.65024 25.5207C8.75591 25.6195 8.81351 25.7587 8.80893 25.9033L8.72234 28.4671C8.69373 29.311 9.20566 30.0773 9.99606 30.3737L12.3978 31.2748C12.5332 31.3259 12.64 31.4327 12.6908 31.5677L13.5922 33.9695C13.6215 34.048 13.6555 34.1239 13.694 34.1964L7.6691 43.4829C7.3769 43.933 7.37461 44.4934 7.663 44.9458C7.95101 45.3983 8.45951 45.6332 8.99089 45.5589L13.8954 44.8734C13.9611 44.8642 14.0263 44.8947 14.061 44.9512L16.8675 49.4983C17.1124 49.895 17.5369 50.1353 18.0031 50.1403C18.0084 50.1403 18.0134 50.1407 18.0187 50.1407C18.4788 50.1407 18.9022 49.911 19.1528 49.5242L27.0168 37.4031L27.5314 37.6369C28.3001 37.9859 29.2038 37.8063 29.7806 37.1894L31.5323 35.3157C31.6311 35.21 31.7715 35.152 31.9149 35.157L34.4787 35.2436C35.3229 35.2722 36.0885 34.7602 36.3853 33.9695L37.2864 31.5677C37.3371 31.4323 37.4443 31.3255 37.5793 31.2748L39.9811 30.3737C40.7718 30.0769 41.2838 29.3106 41.2552 28.4671L41.1686 25.9033C41.1636 25.7587 41.2216 25.6191 41.3273 25.5203L43.201 23.7686C43.8182 23.1922 43.9979 22.2885 43.6489 21.5198ZM18.0206 48.5782L15.3076 44.1821C14.9677 43.6313 14.3345 43.3334 13.6929 43.4226L9.03171 44.0742L14.8232 35.1478C15.0368 35.2176 15.2649 35.2512 15.4988 35.2436L18.0626 35.157C18.2079 35.152 18.3468 35.21 18.4456 35.3157L20.1973 37.1894C20.5776 37.5965 21.1006 37.8131 21.6332 37.8131C21.9074 37.8131 22.1848 37.7555 22.4461 37.6369L24.7818 36.576C24.9134 36.5161 25.0645 36.5161 25.1961 36.576L25.6683 36.7904L18.0206 48.5782ZM42.2012 22.6986L40.327 24.4503C39.9124 24.8378 39.6858 25.3856 39.7049 25.9529L39.7915 28.5164C39.7987 28.7315 39.6682 28.9268 39.4668 29.0023L37.0651 29.9034C36.5337 30.1029 36.1145 30.5217 35.9154 31.0531L35.0139 33.4548C34.9384 33.6563 34.7416 33.7867 34.5283 33.7795L31.9645 33.6929C31.3976 33.6742 30.8494 33.9008 30.4623 34.3154L28.7106 36.1892C28.5637 36.3464 28.3333 36.3925 28.1372 36.3033L25.8019 35.2424C25.2853 35.0074 24.6925 35.0074 24.1756 35.2424L21.8403 36.3033C21.6442 36.3922 21.4142 36.3464 21.2673 36.1892L19.5156 34.3154C19.1433 33.9168 18.623 33.6921 18.0798 33.6921C18.0576 33.6921 18.0355 33.6925 18.013 33.6933L15.4495 33.7799C15.2344 33.7871 15.0391 33.6566 14.9636 33.4552L14.0625 31.0535C13.863 30.5221 13.4438 30.1029 12.9128 29.9038L10.511 29.0023C10.3096 28.9268 10.1792 28.7315 10.1864 28.5167L10.2726 25.9529C10.2921 25.3856 10.0651 24.8378 9.65045 24.4507L7.77668 22.6986C7.61951 22.5517 7.57335 22.3217 7.66262 22.1256L8.72348 19.7903C8.95847 19.2737 8.95847 18.6809 8.72348 18.164L7.66262 15.8287C7.57374 15.633 7.61951 15.4026 7.77668 15.2557L9.65045 13.504C10.0651 13.1165 10.2921 12.5687 10.273 12.0014L10.1864 9.43756C10.1792 9.2228 10.3096 9.02749 10.511 8.95195L12.9128 8.05093C13.4442 7.85142 13.863 7.43256 14.0625 6.90118L14.9636 4.49945C15.0391 4.29803 15.2336 4.16795 15.4495 4.17482L18.0134 4.26103C18.5814 4.28125 19.1281 4.05351 19.5156 3.63886L21.2673 1.76508C21.4142 1.60753 21.6446 1.56214 21.8403 1.65102L24.1756 2.71189C24.6925 2.94649 25.285 2.94649 25.8019 2.71189L28.1372 1.65102C28.3333 1.56214 28.5637 1.60792 28.7106 1.76508L30.4623 3.63886C30.8494 4.05351 31.3988 4.28163 31.9645 4.26141L34.5283 4.17482C34.7404 4.16795 34.9384 4.29803 35.0139 4.49945L35.9154 6.90118C36.1145 7.43256 36.5337 7.85142 37.0651 8.05093L39.4668 8.95195C39.6682 9.02787 39.7987 9.2228 39.7915 9.43795L39.7049 12.0018C39.6858 12.569 39.9124 13.1165 40.327 13.504L42.2012 15.2557C42.3584 15.4026 42.4041 15.633 42.3153 15.8287L41.254 18.164C41.0194 18.6809 41.0194 19.2737 41.254 19.7903L42.3149 22.1256C42.4041 22.3217 42.3584 22.5517 42.2012 22.6986Z" fill="#437FC8"/>
<path d="M37.6397 19.7243C37.238 19.6786 36.8744 19.9658 36.8275 20.3675C36.1306 26.3699 31.0414 30.8961 24.989 30.8961C18.9331 30.8961 13.8436 26.3669 13.1497 20.361C13.1031 19.9593 12.74 19.6702 12.3379 19.7175C11.9362 19.764 11.6478 20.1272 11.6944 20.5292C12.4737 27.2744 18.1893 32.3609 24.989 32.3609C31.7849 32.3609 37.5 27.2774 38.2828 20.5361C38.3294 20.1344 38.0413 19.7709 37.6397 19.7243Z" fill="#437FC8"/>
<path d="M24.9889 5.59351C18.1869 5.59351 12.471 10.6819 11.6936 17.4297C11.6474 17.8314 11.9358 18.1946 12.3375 18.2411C12.3661 18.2446 12.3943 18.2461 12.4222 18.2461C12.7892 18.2461 13.1058 17.9707 13.1489 17.5972C13.8412 11.5891 18.9312 7.05835 24.9889 7.05835C31.0451 7.05835 36.1351 11.5879 36.8282 17.5945C36.8748 17.9962 37.2375 18.2846 37.64 18.2381C38.0421 18.1919 38.3301 17.8284 38.2835 17.4267C37.505 10.6808 31.7894 5.59351 24.9889 5.59351Z" fill="#437FC8"/>
<path d="M37.5901 36.2102C37.37 35.8707 36.916 35.7742 36.5769 35.9943C36.2374 36.2144 36.1409 36.668 36.361 37.0075L40.9459 44.0742L36.2851 43.423C35.6438 43.3334 35.0098 43.6313 34.6703 44.1821L31.9569 48.5782L27.2076 41.2582C26.9875 40.9187 26.5339 40.8222 26.1948 41.0423C25.8553 41.2624 25.7588 41.7159 25.9789 42.0554L30.8247 49.5242C31.0757 49.911 31.4988 50.1407 31.9588 50.1407H31.9745C32.4406 50.1353 32.8652 49.8954 33.1105 49.4987L35.9166 44.9512C35.9517 44.8947 36.0169 44.8642 36.0821 44.8734L40.9867 45.5589C41.5177 45.6336 42.0266 45.3983 42.315 44.9458C42.603 44.4934 42.6007 43.933 42.3089 43.4833L37.5901 36.2102Z" fill="#437FC8"/>
</g>
<defs>
<clipPath id="clip0">
<rect width="50" height="50" fill="white" transform="translate(0 0.140869)"/>
</clipPath>
</defs>
</svg>
