<svg width="46" height="46" viewBox="0 0 46 46" fill="none" xmlns="http://www.w3.org/2000/svg">
<path d="M45.519 38.5332C45.475 36.8297 44.754 35.2627 43.4885 34.1213L29.606 21.6L41.8807 9.32534C41.9613 9.30126 42.0411 9.27129 42.118 9.23068L44.776 7.82777C45.1432 7.63389 45.3895 7.28707 45.4515 6.87653C45.5135 6.46591 45.3807 6.06196 45.0871 5.76806L42.0942 2.77529C41.8005 2.48165 41.3968 2.34885 40.9859 2.4109C40.5753 2.47286 40.2286 2.71913 40.0346 3.08643L38.6316 5.74433C38.5907 5.82193 38.5592 5.90218 38.535 5.98365L32.7413 11.7774C32.472 12.0468 32.472 12.4833 32.7413 12.7526C33.0107 13.0218 33.4471 13.0218 33.7165 12.7526L39.0332 7.43587L40.4265 8.8292L26.8298 22.4259L25.4365 21.0325L31.3713 15.0978C31.6406 14.8284 31.6406 14.392 31.3713 14.1226C31.1019 13.8535 30.6655 13.8535 30.3961 14.1226L26.09 18.4287L21.4035 14.2017C22.7322 10.377 21.77 6.12182 18.8876 3.23953C15.9353 0.287198 11.5063 -0.653671 7.60411 0.842842C7.38605 0.926514 7.22513 1.11478 7.17661 1.3432C7.12809 1.57163 7.19832 1.80911 7.36346 1.97426L12.7768 7.3877C12.937 7.54784 13.0253 7.7608 13.0253 7.98729C13.0253 8.21379 12.937 8.42675 12.7768 8.58697L9.26129 12.1025C9.10115 12.2627 8.88819 12.351 8.6617 12.351C8.4352 12.351 8.22224 12.2628 8.06202 12.1025L2.64857 6.68906C2.48334 6.52392 2.24603 6.45369 2.01752 6.50221C1.78909 6.55081 1.60083 6.71165 1.51716 6.92971C0.0206424 10.8317 0.961512 15.2607 3.91393 18.2132C6.72564 21.0248 10.8984 22.0147 14.6629 20.7984L18.2863 24.7608C18.1122 25.101 17.8858 25.4183 17.6066 25.6975C16.5621 26.742 14.9967 27.0711 13.6181 26.536C13.3633 26.4369 13.0742 26.4979 12.8809 26.6911L4.4382 35.1338C2.15269 37.4194 2.15269 41.1382 4.4382 43.4236C5.54554 44.5312 7.01761 45.1409 8.58339 45.1409C10.1491 45.1409 11.6212 44.5312 12.7284 43.424L21.1711 34.9814C21.3643 34.7881 21.4252 34.499 21.3262 34.2442C20.791 32.8657 21.1201 31.3001 22.1645 30.2556C23.2092 29.2111 24.7747 28.8821 26.1532 29.4171C26.4081 29.5163 26.697 29.4551 26.8904 29.262L28.483 27.6694C28.9625 27.1899 29.2265 26.5523 29.2265 25.8742C29.2265 25.1961 28.9625 24.5585 28.483 24.0789L27.8051 23.401L28.6297 22.5763L42.565 35.1453C43.5469 36.031 44.1065 37.2469 44.1405 38.5687C44.1745 39.8906 43.6783 41.1337 42.7432 42.0686C41.8126 42.9994 40.5728 43.4948 39.2596 43.4664C37.9438 43.437 36.73 42.8859 35.8419 41.9147L25.4805 30.5842C25.2233 30.3031 24.7873 30.2837 24.5064 30.5407C24.2254 30.7978 24.2059 31.2339 24.4628 31.5149L34.8241 42.8453C35.9688 44.097 37.5331 44.8071 39.2287 44.845C39.2762 44.8461 39.3236 44.8466 39.3709 44.8466C41.0134 44.8466 42.5525 44.2095 43.7184 43.0438C44.9233 41.8387 45.5628 40.2368 45.519 38.5332ZM39.8804 6.33275L41.2005 3.83191L44.0305 6.6619L41.5296 7.98193L39.8804 6.33275ZM15.3743 19.533C15.1845 19.3255 14.888 19.254 14.6245 19.3523C11.2527 20.61 7.43105 19.7801 4.88899 17.2383C2.58081 14.93 1.68643 11.5837 2.47455 8.46551L7.08678 13.0777C7.50752 13.4984 8.06677 13.73 8.66161 13.73C9.25645 13.73 9.8157 13.4984 10.2363 13.0777L13.7519 9.56221C14.1725 9.14147 14.4041 8.58223 14.4041 7.98738C14.4041 7.39254 14.1725 6.83329 13.7519 6.41265L9.13973 1.80023C12.2577 1.01177 15.6044 1.90641 17.9124 4.21468C20.5192 6.82125 21.3202 10.7188 19.9534 14.1444C19.8465 14.4124 19.9177 14.7187 20.132 14.9119L25.1136 19.4051L24.4613 20.0574L23.7834 19.3795C23.3038 18.9 22.6662 18.6359 21.9881 18.6359C21.31 18.6359 20.6724 18.9 20.1929 19.3795L18.6003 20.9721C18.4071 21.1653 18.3462 21.4545 18.4452 21.7093C18.6286 22.1817 18.7081 22.6758 18.6945 23.1637L15.3743 19.533ZM27.5076 26.6943L26.2172 27.9848C24.4425 27.4732 22.5114 27.9585 21.1895 29.2804H21.1894C19.8675 30.6023 19.3821 32.5332 19.8939 34.3082L11.7533 42.4487C10.9065 43.2954 9.78081 43.7618 8.58347 43.7618C7.38614 43.7618 6.26026 43.2954 5.4137 42.4487C3.66582 40.7009 3.66582 37.8569 5.4137 36.109L13.5542 27.9685C15.3291 28.4804 17.2599 27.9947 18.582 26.6728C19.9039 25.3509 20.3894 23.42 19.8776 21.6451L21.1681 20.3546C21.6202 19.9024 22.3561 19.9024 22.8082 20.3546L23.9737 21.5202L26.3421 23.8886L27.5076 25.0541C27.9599 25.5064 27.9599 26.2422 27.5076 26.6943Z" fill="#437FC8"/>
</svg>
