<svg width="22" height="23" viewBox="0 0 22 23" fill="none" xmlns="http://www.w3.org/2000/svg">
<path d="M6.60444 15.3463H18.7265C20.101 15.3463 21.2223 14.225 21.2223 12.8504V7.75025C21.2223 7.74572 21.2223 7.73668 21.2223 7.73216C21.2223 7.7186 21.2223 7.70955 21.2223 7.69599C21.2223 7.68695 21.2223 7.6779 21.2178 7.66886C21.2178 7.65982 21.2133 7.64625 21.2133 7.63721C21.2133 7.62817 21.2087 7.61912 21.2087 7.61008C21.2042 7.60104 21.2042 7.59199 21.1997 7.57843C21.1952 7.56939 21.1952 7.56034 21.1907 7.5513C21.1861 7.54226 21.1861 7.53322 21.1816 7.52417C21.1771 7.51513 21.1726 7.50609 21.168 7.49252C21.1635 7.48348 21.159 7.47444 21.1545 7.46992C21.15 7.46087 21.1454 7.45183 21.1409 7.44279C21.1364 7.43374 21.1319 7.42922 21.1274 7.42018C21.1228 7.41114 21.1138 7.40209 21.1093 7.39305C21.1047 7.38401 21.1002 7.37949 21.0912 7.37044C21.0867 7.3614 21.0776 7.35688 21.0731 7.34784C21.0686 7.33879 21.0595 7.33427 21.055 7.32523C21.0505 7.31619 21.0414 7.31166 21.0369 7.30714C21.0279 7.2981 21.0234 7.29358 21.0143 7.28454C21.0053 7.28001 21.0008 7.27097 20.9917 7.26645C20.9827 7.26193 20.9736 7.25289 20.9646 7.24836C20.9555 7.24384 20.951 7.23932 20.942 7.2348C20.9329 7.23028 20.9239 7.22576 20.9148 7.21671C20.9058 7.21219 20.8968 7.20767 20.8877 7.20315C20.8787 7.19863 20.8696 7.19411 20.8606 7.18959C20.8515 7.18506 20.8425 7.18054 20.8335 7.17602C20.8244 7.1715 20.8154 7.1715 20.8063 7.16698C20.7973 7.16246 20.7837 7.15794 20.7747 7.15794C20.7656 7.15794 20.7566 7.15341 20.7521 7.15341C20.7385 7.14889 20.7295 7.14889 20.7159 7.14889C20.7114 7.14889 20.7069 7.14437 20.6978 7.14437L5.33391 5.02381V2.88064C5.33391 2.85803 5.33391 2.83542 5.32939 2.81734C5.32939 2.81282 5.32939 2.8083 5.32487 2.79925C5.32487 2.78569 5.32034 2.77212 5.32034 2.75856C5.31582 2.745 5.31582 2.73595 5.3113 2.72239C5.3113 2.71335 5.30678 2.70882 5.30678 2.69978C5.30226 2.68622 5.29774 2.67265 5.29322 2.65909C5.29322 2.65457 5.28869 2.64552 5.28869 2.641C5.28417 2.62744 5.27965 2.61839 5.27061 2.60483C5.26609 2.60031 5.26609 2.59127 5.26157 2.58674C5.25704 2.5777 5.25252 2.56866 5.24348 2.55962C5.23896 2.55057 5.23444 2.54605 5.22992 2.53701C5.22539 2.52797 5.22087 2.52344 5.21635 2.5144C5.21183 2.50536 5.20279 2.49632 5.19827 2.48727C5.19374 2.48275 5.18922 2.47823 5.1847 2.47371C5.17566 2.46467 5.16662 2.45562 5.15757 2.44658C5.15305 2.44206 5.14853 2.43754 5.14401 2.43302C5.13496 2.42397 5.12592 2.41493 5.11236 2.40589C5.10784 2.40136 5.09879 2.39684 5.09427 2.39232C5.08523 2.38328 5.07619 2.37876 5.06714 2.36971C5.05358 2.36067 5.04001 2.35163 5.03097 2.34711C5.02645 2.34259 5.02193 2.34259 5.01741 2.33806C4.99932 2.32902 4.97671 2.31998 4.95863 2.31094L1.62632 0.909285C1.31434 0.778163 0.95714 0.922849 0.826018 1.23483C0.694896 1.54681 0.839582 1.904 1.15156 2.03513L4.10859 3.28305V6.05018V6.48876V9.85272V12.8595V16.6575C4.10859 17.9235 5.0581 18.9725 6.28341 19.1307C6.06186 19.5015 5.93074 19.9356 5.93074 20.3968C5.93074 21.7577 7.0385 22.8609 8.39493 22.8609C9.75137 22.8609 10.8591 21.7532 10.8591 20.3968C10.8591 19.9446 10.737 19.5151 10.52 19.1534H16.0091C15.792 19.5196 15.67 19.9446 15.67 20.3968C15.67 21.7577 16.7777 22.8609 18.1341 22.8609C19.4906 22.8609 20.5983 21.7532 20.5983 20.3968C20.5983 19.0403 19.4906 17.9326 18.1341 17.9326H6.60444C5.89909 17.9326 5.32939 17.3583 5.32939 16.6575V15.0027C5.70015 15.2197 6.13873 15.3463 6.60444 15.3463ZM9.64286 20.3922C9.64286 21.0795 9.0822 21.6356 8.39946 21.6356C7.71672 21.6356 7.15605 21.075 7.15605 20.3922C7.15605 19.7095 7.71672 19.1488 8.39946 19.1488C9.0822 19.1488 9.64286 19.705 9.64286 20.3922ZM19.3821 20.3922C19.3821 21.0795 18.8214 21.6356 18.1387 21.6356C17.4559 21.6356 16.8953 21.075 16.8953 20.3922C16.8953 19.7095 17.4559 19.1488 18.1387 19.1488C18.8214 19.1488 19.3821 19.705 19.3821 20.3922ZM18.7265 14.1255H6.60444C5.89909 14.1255 5.32939 13.5513 5.32939 12.8504V9.84368V6.47972V6.25364L20.0015 8.27473V12.8459C20.0015 13.5558 19.4273 14.1255 18.7265 14.1255Z" fill="#1A467C"/>
</svg>
