<svg width="12" height="12" viewBox="0 0 12 12" fill="none" xmlns="http://www.w3.org/2000/svg">
<g clip-path="url(#clip0)">
<path d="M6.66295 6.00076L11.8627 0.800964C12.0458 0.617894 12.0458 0.321082 11.8627 0.138035C11.6796 -0.0450117 11.3828 -0.0450351 11.1998 0.138035L6 5.33783L0.800231 0.138035C0.617161 -0.0450351 0.320349 -0.0450351 0.137302 0.138035C-0.0457441 0.321105 -0.0457675 0.617917 0.137302 0.800964L5.33707 6.00073L0.137302 11.2005C-0.0457675 11.3836 -0.0457675 11.6804 0.137302 11.8635C0.228826 11.955 0.348802 12.0007 0.468778 12.0007C0.588755 12.0007 0.708708 11.955 0.800255 11.8635L6 6.66368L11.1998 11.8635C11.2913 11.955 11.4113 12.0007 11.5312 12.0007C11.6512 12.0007 11.7712 11.955 11.8627 11.8635C12.0458 11.6804 12.0458 11.3836 11.8627 11.2005L6.66295 6.00076Z" fill="white"/>
</g>
<defs>
<clipPath id="clip0">
<rect width="12" height="12" fill="white"/>
</clipPath>
</defs>
</svg>
