<svg width="21" height="15" viewBox="0 0 21 15" fill="none" xmlns="http://www.w3.org/2000/svg">
<path fill-rule="evenodd" clip-rule="evenodd" d="M14.4727 1.03879C16.2067 1.50152 16.87 2.66756 17.7016 4.27246H14.4727V1.03879ZM4.33899 4.40723C4.6785 4.40723 4.92493 4.59569 4.92493 5.03613C4.92493 5.40762 4.66354 5.70891 4.34067 5.70996H0.800781C0.477142 5.70996 0.214844 6.01178 0.214844 6.38379C0.214844 6.75597 0.477142 7.05762 0.800781 7.05762H6.07422C6.40091 7.05762 6.66245 7.35909 6.66245 7.73145C6.66245 8.10363 6.40015 8.40527 6.07651 8.40527H0.800781C0.477142 8.40527 0.214844 8.70692 0.214844 9.0791C0.214844 9.45129 0.477142 9.75293 0.800781 9.75293H2.08984V11.7744C2.08984 12.1466 2.35214 12.4482 2.67578 12.4482H3.85361C4.06357 13.6376 4.97742 14.5146 6.05469 14.5146C7.13196 14.5146 8.04581 13.6376 8.25577 12.4482H14.2052C14.4151 13.6376 15.329 14.5146 16.4062 14.5146C17.4835 14.5146 18.3974 13.6376 18.6073 12.4482H19.6289C19.9525 12.4482 20.2148 12.1466 20.2148 11.7744V7.73145C20.2148 5.75436 18.4015 5.6231 18.3998 5.62012H13.8867C13.5631 5.62012 13.3008 5.31847 13.3008 4.94629V0.90332H2.67578C2.35214 0.90332 2.08984 1.20496 2.08984 1.57715V3.05957H1.38672C1.06308 3.05957 0.800781 3.36121 0.800781 3.7334C0.800781 4.10558 1.06308 4.40723 1.38672 4.40723H4.33899ZM17.1658 11.0581C17.5853 11.5405 17.5853 12.323 17.1658 12.8053C16.4911 13.5813 15.332 13.0292 15.332 11.9316C15.332 10.8342 16.4911 10.2822 17.1658 11.0581ZM6.81427 11.0581C7.23373 11.5405 7.23373 12.323 6.81427 12.8053C6.13953 13.5813 4.98047 13.0292 4.98047 11.9316C4.98047 10.8342 6.13953 10.2822 6.81427 11.0581Z" fill="#1A467C"/>
</svg>
