<svg width="21" height="21" viewBox="0 0 21 21" fill="none" xmlns="http://www.w3.org/2000/svg">
<g clip-path="url(#clip0)">
<path d="M18.3884 8.67786C18.3884 4.23633 14.775 0.623047 10.3333 0.623047C5.89175 0.623047 2.27832 4.23633 2.27832 8.67786C2.27832 13.1192 5.89175 16.7325 10.3333 16.7325C14.775 16.7325 18.3884 13.1192 18.3884 8.67786ZM8.89743 12.1138L6.14734 9.36374L6.98093 8.5303L8.89743 10.4468L13.6858 5.6586L14.5194 6.49203L8.89743 12.1138Z" fill="#1A467C"/>
<path d="M2.88953 14.1338L0.451172 17.6902L4.05621 17.0179L4.72852 20.623L7.01184 17.2928C5.35413 16.6515 3.92651 15.5449 2.88953 14.1338Z" fill="#1A467C"/>
<path d="M17.7771 14.1338C16.7401 15.5449 15.3125 16.6515 13.6548 17.2928L15.9381 20.623L16.6104 17.0179L20.2155 17.6902L17.7771 14.1338Z" fill="#1A467C"/>
</g>
<defs>
<clipPath id="clip0">
<rect width="20" height="20" fill="white" transform="translate(0.333984 0.623047)"/>
</clipPath>
</defs>
</svg>
