<svg width="15" height="14" viewBox="0 0 15 14" fill="none" xmlns="http://www.w3.org/2000/svg">
<path d="M14.4818 5.07598C14.3218 4.8964 14.1032 4.7796 13.865 4.74644V4.74594L10.1442 4.23196L8.67182 0.713704C8.45683 0.198729 7.86507 -0.044448 7.35012 0.170547C7.10463 0.27305 6.90944 0.468213 6.80697 0.713704L5.33458 4.23196L1.61383 4.74594C1.05948 4.8231 0.672644 5.33509 0.749807 5.88944C0.782969 6.12766 0.899768 6.34632 1.07935 6.50633L3.88266 9.00615L3.30667 12.9289C3.24427 13.3272 3.42721 13.724 3.77064 13.9353C4.10923 14.1518 4.54476 14.1437 4.87506 13.9148L7.73936 11.9669L10.6037 13.9168C11.0659 14.2305 11.6948 14.1101 12.0086 13.6479C12.1511 13.4379 12.2095 13.1819 12.1721 12.9308L11.5961 9.00662L14.3994 6.5068C14.8173 6.13446 14.8542 5.49384 14.4818 5.07598ZM10.7292 8.44167C10.6038 8.55372 10.5431 8.72129 10.5677 8.88765L11.1676 13.0874L8.02185 10.9485C7.85227 10.8333 7.62948 10.8333 7.45989 10.9485L4.2956 13.0744L4.91106 8.88566C4.93496 8.71997 4.87432 8.55331 4.74956 8.4417L1.74976 5.73787L5.75349 5.18539C5.92879 5.16123 6.07823 5.04618 6.14645 4.88292L7.74534 1.09219C7.74716 1.09442 7.7485 1.09697 7.74935 1.09969L9.33175 4.88093C9.39997 5.04419 9.54944 5.15923 9.72471 5.1834L13.7335 5.76037L10.7292 8.44167Z" fill="#FFA800"/>
</svg>
