<svg width="16" height="19" viewBox="0 0 16 19" fill="none" xmlns="http://www.w3.org/2000/svg">
<path d="M2.65998 17.3715C2.70677 18.2188 3.47814 18.8806 4.42249 18.8806H11.5773C12.5216 18.8806 13.2931 18.2188 13.3398 17.3715L14.3704 6.7041H1.62939L2.65998 17.3715ZM9.76461 9.35116H10.9411V15.1747H9.76461V9.35116ZM7.41167 9.35116H8.58814V15.1747H7.41167V9.35116ZM5.05873 9.35116H6.2352V15.1747H5.05873V9.35116Z" fill="#1A467C"/>
<path d="M10.9413 3.52792V2.46909C10.9413 1.59338 10.1497 0.880859 9.17656 0.880859H6.82362C5.8506 0.880859 5.05891 1.59338 5.05891 2.46909V3.52792H0.353027V5.64557H15.6471V3.52792H10.9413ZM6.23538 3.52792V2.46909C6.23538 2.17718 6.4993 1.93968 6.82362 1.93968H9.17656C9.50095 1.93968 9.76479 2.17718 9.76479 2.46909V3.52792H6.23538Z" fill="#1A467C"/>
</svg>
