<svg width="14" height="14" fill="none" xmlns="http://www.w3.org/2000/svg"><path d="M7 3.01a2.602 2.602 0 00-2.6 2.599c0 1.433 1.167 2.599 2.6 2.599s2.6-1.166 2.6-2.6A2.604 2.604 0 007 3.01zm0 4.104c-.83 0-1.505-.675-1.505-1.505 0-.83.675-1.505 1.505-1.505.83 0 1.505.675 1.505 1.505 0 .83-.675 1.505-1.505 1.505z" fill="#437FC8"/><path d="M7 0a5.615 5.615 0 00-5.609 5.609v.155c0 1.564.897 3.386 2.666 5.417a23.052 23.052 0 002.6 2.541L7 14l.344-.278a23.053 23.053 0 002.6-2.541c1.768-2.03 2.665-3.853 2.665-5.417v-.155A5.615 5.615 0 007 0zm4.514 5.764c0 2.643-3.405 5.843-4.514 6.814-1.109-.972-4.514-4.171-4.514-6.814v-.155A4.52 4.52 0 017 1.094a4.52 4.52 0 014.514 4.515v.155z" fill="#437FC8"/></svg>