<svg width="46" height="46" fill="none" xmlns="http://www.w3.org/2000/svg"><path d="M45.519 38.533a6.1 6.1 0 00-2.03-4.412L29.606 21.6 41.881 9.325c.08-.024.16-.054.237-.094l2.658-1.403c.367-.194.613-.54.675-.951a1.28 1.28 0 00-.364-1.109l-2.993-2.993a1.282 1.282 0 00-1.108-.364c-.41.062-.757.308-.951.675l-1.403 2.658a1.297 1.297 0 00-.097.24l-5.794 5.793a.69.69 0 10.976.976l5.316-5.317 1.393 1.393L26.83 22.426l-1.393-1.393 5.934-5.935a.69.69 0 10-.975-.975l-4.306 4.306-4.686-4.227A10.58 10.58 0 0018.888 3.24 10.603 10.603 0 007.604.843a.69.69 0 00-.24 1.131l5.413 5.414c.16.16.248.373.248.6a.842.842 0 01-.248.599L9.26 12.102a.842.842 0 01-.6.249.842.842 0 01-.599-.249L2.649 6.69a.69.69 0 00-1.132.24 10.603 10.603 0 002.397 11.284 10.62 10.62 0 0010.749 2.585l3.623 3.963c-.174.34-.4.657-.68.937a3.732 3.732 0 01-3.988.838.69.69 0 00-.737.155l-8.443 8.443a5.868 5.868 0 000 8.29 5.823 5.823 0 004.145 1.717c1.566 0 3.038-.61 4.145-1.717l8.443-8.443a.69.69 0 00.155-.737 3.732 3.732 0 01.838-3.988 3.733 3.733 0 013.99-.839.69.69 0 00.736-.155l1.593-1.593c.48-.48.744-1.117.744-1.795 0-.678-.265-1.316-.744-1.795l-.678-.678.825-.825 13.935 12.57a4.733 4.733 0 011.576 3.423 4.732 4.732 0 01-1.398 3.5 4.741 4.741 0 01-3.483 1.397 4.734 4.734 0 01-3.418-1.551L25.48 30.585a.69.69 0 10-1.018.93l10.361 11.33a6.101 6.101 0 004.547 2.002 6.1 6.1 0 004.347-1.803 6.1 6.1 0 001.801-4.51zm-5.639-32.2l1.32-2.501 2.83 2.83-2.5 1.32-1.65-1.65zm-24.506 13.2a.69.69 0 00-.75-.18 9.236 9.236 0 01-9.735-2.115 9.223 9.223 0 01-2.414-8.772l4.612 4.612c.42.42.98.652 1.575.652.594 0 1.154-.232 1.574-.652l3.516-3.516c.42-.42.652-.98.652-1.575 0-.594-.232-1.154-.652-1.574L9.14 1.8a9.222 9.222 0 018.772 2.415 9.204 9.204 0 012.041 9.93.69.69 0 00.179.767l4.982 4.493-.653.652-.678-.677a2.523 2.523 0 00-1.795-.744 2.52 2.52 0 00-1.795.744L18.6 20.971a.69.69 0 00-.155.737c.184.473.263.967.25 1.455l-3.32-3.631zm12.134 7.161l-1.29 1.29a5.112 5.112 0 00-5.029 1.296 5.112 5.112 0 00-1.295 5.028l-8.14 8.14a4.454 4.454 0 01-3.17 1.314 4.453 4.453 0 01-3.17-1.313 4.488 4.488 0 010-6.34l8.14-8.14a5.112 5.112 0 005.028-1.296 5.112 5.112 0 001.296-5.028l1.29-1.29a1.161 1.161 0 011.64 0l1.166 1.165 2.368 2.369 1.166 1.165a1.16 1.16 0 010 1.64z" fill="#437FC8"/></svg>