<svg width="50" height="50" fill="none" xmlns="http://www.w3.org/2000/svg"><g clip-path="url(#clip0)" fill="#437FC8"><path d="M25 .14C11.47.14.5 11.11.5 24.64c0 13.532 10.97 24.5 24.5 24.5s24.5-10.968 24.5-24.5C49.485 11.117 38.524.157 25 .14zm0 47.367c-12.629 0-22.867-10.237-22.867-22.866C2.133 12.01 12.371 1.774 25 1.774c12.629 0 22.867 10.238 22.867 22.867C47.852 37.264 37.623 47.493 25 47.507z"/><path d="M13.642 23.089a.817.817 0 00.966-.632c.102-.484.239-.96.408-1.424a.817.817 0 10-1.535-.558 12.26 12.26 0 00-.468 1.647.817.817 0 00.629.967zm2.09-4.329a.816.816 0 00.663-.336c.29-.401.608-.781.95-1.138a.817.817 0 00-1.178-1.131c-.395.41-.76.846-1.094 1.306a.816.816 0 00.66 1.296v.003zm3.525-3.19a.811.811 0 00.408-.111c.426-.25.869-.468 1.326-.653a.817.817 0 10-.616-1.514c-.527.215-1.04.467-1.533.753a.817.817 0 00.409 1.524l.006.001zm17.513 5.711c-.004-.021 0-.042-.005-.063-.015-.052-.035-.104-.05-.156-.016-.052-.04-.117-.059-.176-.099-.305-.21-.607-.332-.906l-.066-.164c-.03-.067-.053-.137-.082-.204a.661.661 0 00-.047-.064c-.456-1-1.044-1.934-1.75-2.777-.01-.013-.012-.029-.022-.042a12.391 12.391 0 00-1.19-1.221.883.883 0 00-.082-.048 12.261 12.261 0 00-2.68-1.796.581.581 0 00-.07-.053c-.157-.076-.318-.143-.48-.212-.046-.02-.091-.042-.139-.062a12.27 12.27 0 00-.968-.362h-.026a12.208 12.208 0 00-3.259-.557c-.025 0-.047-.017-.072-.017h-.252c-.047 0-.092-.008-.138-.008-.013 0-.024.007-.037.008-.427-.002-.854.02-1.279.062a.816.816 0 00.17 1.624c.416-.042.836-.06 1.255-.055a10.55 10.55 0 013.985.817l.089.04a10.65 10.65 0 013.084 2.033c.22.208.43.425.63.654a10.619 10.619 0 011.861 2.892c.018.04.034.081.051.123.109.26.206.527.292.798.017.05.035.101.05.152a10.58 10.58 0 01.465 3.1c0 .326-.02.648-.05.967a10.605 10.605 0 01-3.794 7.2l-.043.036a10.603 10.603 0 01-3.545 1.923c-.037.012-.075.021-.112.032-.268.082-.542.151-.816.212l-.203.043c-5.668 1.124-11.191-2.503-12.413-8.15l1.827.922a.817.817 0 10.73-1.462l-3.267-1.634a.806.806 0 00-.356-.081.22.22 0 00-.036-.008.73.73 0 00-.07.02.803.803 0 00-.634.429l-1.633 3.265a.817.817 0 101.462.73l.557-1.115c.232.821.55 1.615.951 2.369a.646.646 0 00.02.067c.269.503.572.986.908 1.447.02.028.053.039.076.063a12.392 12.392 0 002.204 2.273.77.77 0 00.095.11c.448.352.92.672 1.414.958a.8.8 0 00.193.082c.912.508 1.886.898 2.896 1.159a.753.753 0 00.074.035 12.18 12.18 0 001.684.293h.081c.391.04.787.062 1.187.062.665-.005 1.33-.064 1.985-.176H27a.75.75 0 00.143-.013c.071-.012.14-.031.212-.045.09-.017.18-.038.27-.057.309-.067.614-.146.915-.236l.142-.04c.046-.015.081-.023.119-.035.018-.006.03-.02.048-.027a12.205 12.205 0 002.978-1.454c.011-.007.023-.009.035-.017.313-.211.613-.444.907-.685l.056-.047c.128-.106.258-.21.38-.32a.711.711 0 00.06-.08 12.331 12.331 0 002.05-2.431.861.861 0 00.082-.1c.302-.484.57-.988.802-1.509.008-.017.006-.036.012-.054a12.15 12.15 0 00.899-3.142.728.728 0 00.026-.081c.015-.1.02-.2.032-.3a12.302 12.302 0 00.087-1.404v-.063a12.208 12.208 0 00-.483-3.29z"/><path d="M25 17.29a.817.817 0 00-.817.817v6.534c0 .216.087.424.24.577l3.266 3.267a.817.817 0 001.155-1.155l-3.027-3.028v-6.195a.817.817 0 00-.817-.816z"/></g><defs><clipPath id="clip0"><path fill="#fff" transform="translate(.5 .14)" d="M0 0h49v49H0z"/></clipPath></defs></svg>