<svg width="43" height="43" fill="none" xmlns="http://www.w3.org/2000/svg"><path d="M38.93 13.55a3.183 3.183 0 00-3.513-3.515A3.189 3.189 0 0031.9 6.518a3.187 3.187 0 00-5.424-2.601l-2.405 2.405c-.358-.477-.75-.928-1.17-1.35l-2.813-2.813a5.675 5.675 0 00-8.026 0 .702.702 0 000 .995l1.02 1.019a10.543 10.543 0 012.71 10.208 11.93 11.93 0 00-.42 3.138v4.534l-1.406 1.406-.206-.206a.703.703 0 00-.995 0l-2.315 2.315-.206-.206a.703.703 0 00-.994 0L.812 33.8l.994.994 7.94-7.94L21.41 38.516l-3.019 3.018.995.995 3.515-3.516a.702.702 0 000-.994l-.909-.91 2.316-2.315a.702.702 0 000-.994l-1.613-1.612 1.407-1.407h5.333a.704.704 0 00.497-.206l7.032-7.03-.028-.028c.135-.098.261-.207.38-.324l4.218-4.22a3.188 3.188 0 00-2.603-5.422zm-3.168-2.129a1.782 1.782 0 011.261 3.043l-4.219 4.219a1.783 1.783 0 01-2.521-2.522l4.219-4.218a1.778 1.778 0 011.26-.522zm-2.255-2.994a1.785 1.785 0 010 2.521l-4.218 4.219a1.782 1.782 0 11-2.522-2.521l4.22-4.219a1.785 1.785 0 012.52 0zm-6.036-3.516a1.783 1.783 0 012.52 2.522l-4.218 4.218a1.783 1.783 0 11-2.521-2.52l4.219-4.22zm-6.474 31.204l-9.553-9.552 1.818-1.819 9.553 9.553-1.818 1.818zm8.146-6.74h-5.334a.702.702 0 00-.497.206L21.7 31.193l-6.74-6.74 1.612-1.612a.702.702 0 00.206-.497v-4.825c0-.935.125-1.866.37-2.768a11.954 11.954 0 00-3.072-11.573l-.481-.48a4.276 4.276 0 015.498.456l2.813 2.812c.422.422.81.877 1.16 1.361l-.808.809a3.186 3.186 0 002.6 5.423 3.172 3.172 0 00.357 1.854v.553a11.228 11.228 0 01-3.31 7.99l.995.994a12.612 12.612 0 003.697-8.193 3.174 3.174 0 001.778.32 3.183 3.183 0 003.516 3.513 3.184 3.184 0 002.56 3.477l-5.308 5.308zM40.539 17.98l-4.22 4.218a1.783 1.783 0 11-2.52-2.521l4.218-4.219a1.783 1.783 0 112.522 2.522z" fill="#437FC8"/></svg>