<svg width="50" height="51" fill="none" xmlns="http://www.w3.org/2000/svg"><g clip-path="url(#clip0)" fill="#437FC8"><path d="M43.649 21.52l-1.061-2.335a.5.5 0 010-.415l1.06-2.335a1.965 1.965 0 00-.447-2.25l-1.874-1.751a.5.5 0 01-.158-.383l.086-2.564a1.964 1.964 0 00-1.274-1.906l-2.401-.902a.5.5 0 01-.293-.293l-.901-2.402a1.966 1.966 0 00-1.907-1.273l-2.564.086a.5.5 0 01-.383-.158L29.781.764a1.964 1.964 0 00-2.25-.447l-2.335 1.061a.502.502 0 01-.414 0L22.446.318a1.964 1.964 0 00-2.25.446l-1.75 1.875a.5.5 0 01-.383.158l-2.564-.086a1.965 1.965 0 00-1.907 1.274l-.901 2.402a.5.5 0 01-.293.293l-2.402.9a1.964 1.964 0 00-1.274 1.907l.087 2.564a.502.502 0 01-.159.383l-1.874 1.751a1.964 1.964 0 00-.447 2.25l1.06 2.335a.5.5 0 010 .415L6.33 21.52c-.35.768-.17 1.672.447 2.249l1.874 1.752a.501.501 0 01.159.382l-.087 2.564a1.964 1.964 0 001.274 1.907l2.402.9a.503.503 0 01.293.294l.901 2.401c.03.079.063.155.102.227L7.67 43.483a1.338 1.338 0 00-.006 1.463 1.34 1.34 0 001.328.613l4.904-.686a.17.17 0 01.166.078l2.806 4.547c.245.397.67.637 1.136.642h.016c.46 0 .883-.229 1.134-.616l7.864-12.12.514.233c.77.349 1.673.17 2.25-.448l1.751-1.873a.502.502 0 01.383-.159l2.564.087a1.964 1.964 0 001.906-1.275l.901-2.401a.501.501 0 01.293-.293l2.402-.901a1.964 1.964 0 001.274-1.907l-.086-2.564a.5.5 0 01.158-.383l1.874-1.751c.617-.577.797-1.48.448-2.25zM18.02 48.578l-2.713-4.396a1.633 1.633 0 00-1.615-.76l-4.661.652 5.791-8.926c.214.07.442.103.676.096l2.564-.087a.5.5 0 01.383.159l1.751 1.873a1.963 1.963 0 002.25.448l2.335-1.061a.5.5 0 01.414 0l.472.214-7.647 11.788zm24.18-25.88l-1.874 1.752a1.966 1.966 0 00-.622 1.503l.087 2.563a.5.5 0 01-.325.486l-2.402.901c-.531.2-.95.619-1.15 1.15l-.901 2.402a.502.502 0 01-.486.325l-2.563-.087a1.967 1.967 0 00-1.503.622l-1.751 1.874a.5.5 0 01-.574.114l-2.335-1.06a1.964 1.964 0 00-1.626 0l-2.336 1.06a.5.5 0 01-.573-.114l-1.751-1.874a1.964 1.964 0 00-1.503-.622l-2.564.087a.5.5 0 01-.485-.325l-.902-2.401a1.96 1.96 0 00-1.15-1.15l-2.401-.902a.5.5 0 01-.325-.485l.087-2.564a1.963 1.963 0 00-.623-1.502l-1.873-1.752a.5.5 0 01-.114-.573l1.06-2.336a1.964 1.964 0 000-1.626l-1.06-2.335a.5.5 0 01.114-.573l1.873-1.752c.415-.387.642-.935.623-1.503l-.087-2.563a.5.5 0 01.325-.486l2.402-.901c.531-.2.95-.618 1.15-1.15l.9-2.402a.5.5 0 01.487-.324l2.563.086a1.96 1.96 0 001.503-.622l1.751-1.874a.5.5 0 01.573-.114l2.336 1.06a1.963 1.963 0 001.626 0l2.335-1.06a.501.501 0 01.574.114l1.751 1.874a1.96 1.96 0 001.503.622l2.563-.086a.503.503 0 01.486.324l.901 2.402c.2.532.619.95 1.15 1.15l2.402.9a.505.505 0 01.325.487l-.087 2.564c-.02.567.207 1.114.622 1.502l1.874 1.752a.5.5 0 01.114.573l-1.061 2.335a1.967 1.967 0 000 1.626l1.06 2.336a.5.5 0 01-.113.573z"/><path d="M37.64 19.724a.734.734 0 00-.813.643c-.696 6.003-5.786 10.53-11.838 10.53-6.056 0-11.145-4.53-11.84-10.536a.732.732 0 10-1.455.168c.78 6.745 6.495 11.832 13.295 11.832 6.796 0 12.511-5.084 13.294-11.825a.732.732 0 00-.643-.812zM24.989 5.594c-6.802 0-12.518 5.088-13.295 11.836a.733.733 0 001.455.167c.692-6.008 5.782-10.539 11.84-10.539 6.056 0 11.146 4.53 11.84 10.537a.732.732 0 001.454-.168C37.505 10.68 31.79 5.594 24.99 5.594zM37.59 36.21a.733.733 0 00-1.229.797l4.585 7.067-4.66-.651a1.632 1.632 0 00-1.616.76l-2.713 4.395-4.75-7.32a.732.732 0 10-1.228.797l4.846 7.47c.25.386.674.616 1.134.616h.015a1.352 1.352 0 001.137-.642l2.806-4.548a.168.168 0 01.165-.078l4.905.686c.53.075 1.04-.16 1.328-.613a1.338 1.338 0 00-.006-1.463L37.59 36.21z"/></g><defs><clipPath id="clip0"><path fill="#fff" transform="translate(0 .14)" d="M0 0h50v50H0z"/></clipPath></defs></svg>