<svg width="46" height="51" fill="none" xmlns="http://www.w3.org/2000/svg"><path d="M22.325 47.532l-1.185 1.186c-.527.527-.147 1.423.589 1.423a.831.831 0 00.59-.244l2.603-2.605a.833.833 0 000-1.178l-2.604-2.604a.833.833 0 10-1.178 1.178l1.177 1.178c-11.27-.188-20.38-9.412-20.38-20.725 0-4.675 1.519-9.088 4.392-12.76a.833.833 0 10-1.313-1.028C1.912 15.323.271 20.09.271 25.141c0 12.265 9.832 22.21 22.054 22.391zM7.742 10.412c-.746 0-1.12-.917-.576-1.437a.833.833 0 011.196.006c.528.55.095 1.43-.62 1.43zM27.25 30.036h2.5a.833.833 0 010 1.666h-2.5a.833.833 0 010-1.666zm-13.854 6.041c0-.46.373-.833.833-.833h16.875a1.67 1.67 0 001.667-1.667V16.703c0-.919-.748-1.666-1.667-1.666h-4.27v5.833a.834.834 0 01-1.225.736l-2.943-1.563-2.942 1.563a.834.834 0 01-1.224-.736v-2.917a.833.833 0 011.666 0v1.53l2.11-1.12a.833.833 0 01.782 0l2.108 1.12v-4.446H14.23c-.919 0-1.667.747-1.667 1.666v14.792a.833.833 0 01-1.666 0V16.703a3.337 3.337 0 013.333-3.333h16.875a3.337 3.337 0 013.333 3.333v16.875a3.337 3.337 0 01-3.333 3.334H14.229a.833.833 0 01-.833-.834zm30-10.937c0-11.313-9.11-20.538-20.38-20.725l1.177 1.177c.527.527.146 1.423-.59 1.423a.831.831 0 01-.588-.244L20.41 4.168a.833.833 0 010-1.179L23.015.385a.833.833 0 011.178 1.178L23.007 2.75c12.214.181 22.055 10.119 22.055 22.392 0 5.05-1.64 9.818-4.746 13.787a.833.833 0 01-1.312-1.026c2.873-3.674 4.392-8.086 4.392-12.761zm-5.202 14.987c.3.313.331.835-.045 1.195a.833.833 0 01-1.156-1.201.834.834 0 011.2.006z" fill="#437FC8"/></svg>