<svg width="22" height="23" fill="none" xmlns="http://www.w3.org/2000/svg"><path d="M6.604 15.346h12.123a2.5 2.5 0 002.495-2.496V7.696c0-.009 0-.018-.004-.027 0-.01-.005-.023-.005-.032 0-.009-.004-.018-.004-.027-.005-.009-.005-.018-.01-.032-.004-.009-.004-.018-.008-.027-.005-.009-.005-.018-.01-.027a.232.232 0 01-.013-.031c-.005-.01-.009-.019-.014-.023l-.013-.027c-.005-.01-.01-.014-.014-.023s-.013-.018-.018-.027a.073.073 0 00-.018-.023c-.004-.009-.013-.013-.018-.022-.004-.01-.014-.014-.018-.023-.005-.009-.014-.013-.018-.018a4.815 4.815 0 00-.023-.022c-.009-.005-.013-.014-.022-.019-.01-.004-.018-.013-.027-.018-.01-.004-.014-.009-.023-.013a.095.095 0 01-.027-.018 6.84 6.84 0 00-.027-.014l-.027-.013-.027-.014c-.01-.005-.019-.005-.028-.009a.084.084 0 00-.031-.01c-.01 0-.018-.004-.023-.004-.014-.004-.022-.004-.036-.004-.005 0-.01-.005-.018-.005L5.334 5.024V2.88c0-.023 0-.046-.005-.064 0-.004 0-.009-.004-.018 0-.013-.005-.027-.005-.04-.004-.014-.004-.023-.009-.037 0-.009-.004-.013-.004-.022l-.014-.04c0-.005-.004-.014-.004-.019a.135.135 0 00-.018-.036c-.005-.005-.005-.014-.01-.018a.064.064 0 00-.018-.027c-.004-.01-.009-.014-.013-.023-.005-.009-.01-.014-.014-.023s-.013-.018-.018-.027l-.013-.013-.027-.027-.014-.014a.197.197 0 00-.032-.027c-.004-.005-.013-.01-.018-.014-.009-.009-.018-.013-.027-.022a.417.417 0 00-.036-.023c-.005-.004-.01-.004-.014-.009l-.058-.027L1.626.909a.61.61 0 00-.8.326.61.61 0 00.326.8l2.957 1.248v13.374c0 1.267.95 2.316 2.174 2.474a2.47 2.47 0 00-.352 1.266 2.467 2.467 0 002.464 2.464 2.47 2.47 0 002.464-2.464c0-.452-.122-.882-.339-1.244h5.49c-.218.367-.34.792-.34 1.244a2.467 2.467 0 002.464 2.464 2.47 2.47 0 002.464-2.464 2.47 2.47 0 00-2.464-2.464H6.604a1.277 1.277 0 01-1.275-1.276v-1.654c.371.217.81.343 1.275.343zm3.039 5.046c0 .688-.56 1.244-1.244 1.244a1.249 1.249 0 01-1.243-1.244c0-.683.56-1.243 1.243-1.243s1.244.556 1.244 1.243zm9.74 0c0 .688-.562 1.244-1.244 1.244a1.25 1.25 0 01-1.244-1.244c0-.683.56-1.243 1.244-1.243.682 0 1.243.556 1.243 1.243zm-.656-6.266H6.604A1.276 1.276 0 015.33 12.85V6.254l14.672 2.02v4.572c0 .71-.574 1.28-1.274 1.28z" fill="#1A467C"/></svg>