<svg width="21" height="15" fill="none" xmlns="http://www.w3.org/2000/svg"><path fill-rule="evenodd" clip-rule="evenodd" d="M14.473 1.039c1.734.463 2.397 1.629 3.229 3.233h-3.23V1.04zM4.339 4.407c.34 0 .586.189.586.63 0 .37-.261.672-.584.673H.8c-.324 0-.586.302-.586.674 0 .372.262.674.586.674h5.273c.327 0 .588.301.588.673 0 .373-.262.674-.585.674H.8c-.324 0-.586.302-.586.674 0 .372.262.674.586.674h1.29v2.021c0 .373.262.674.586.674h1.178c.21 1.19 1.123 2.067 2.2 2.067 1.078 0 1.992-.877 2.202-2.067h5.95c.21 1.19 1.123 2.067 2.2 2.067 1.078 0 1.991-.877 2.201-2.067h1.022c.323 0 .586-.301.586-.674V7.731c0-1.977-1.814-2.108-1.815-2.11h-4.513c-.324 0-.586-.303-.586-.675V.903H2.676c-.324 0-.586.302-.586.674V3.06h-.703c-.324 0-.586.301-.586.673 0 .373.262.674.586.674h2.952zm12.827 6.651a1.37 1.37 0 010 1.747c-.675.776-1.834.224-1.834-.873 0-1.098 1.16-1.65 1.834-.874zm-10.352 0a1.37 1.37 0 010 1.747c-.674.776-1.834.224-1.834-.873 0-1.098 1.16-1.65 1.834-.874z" fill="#1A467C"/></svg>