<svg width="21" height="21" fill="none" xmlns="http://www.w3.org/2000/svg"><g clip-path="url(#clip0)" fill="#1A467C"><path d="M18.388 8.678c0-4.442-3.613-8.055-8.055-8.055-4.441 0-8.055 3.613-8.055 8.055 0 4.441 3.614 8.055 8.055 8.055 4.442 0 8.055-3.614 8.055-8.055zm-9.49 3.436l-2.75-2.75.833-.834 1.916 1.917 4.789-4.788.833.833-5.622 5.622zm-6.008 2.02L.45 17.69l3.605-.672.673 3.605 2.283-3.33a9.28 9.28 0 01-4.122-3.16zm14.887 0a9.28 9.28 0 01-4.122 3.159l2.283 3.33.672-3.605 3.605.672-2.438-3.556z"/></g><defs><clipPath id="clip0"><path fill="#fff" transform="translate(.334 .623)" d="M0 0h20v20H0z"/></clipPath></defs></svg>