<svg width="15" height="14" fill="none" xmlns="http://www.w3.org/2000/svg"><path d="M14.482 5.076a1.013 1.013 0 00-.617-.33l-3.72-.514L8.671.714a1.01 1.01 0 00-1.865 0L5.335 4.232l-3.721.514a1.013 1.013 0 00-.535 1.76l2.804 2.5-.576 3.923a1 1 0 00.464 1.006.997.997 0 001.104-.02l2.864-1.948 2.865 1.95a1.011 1.011 0 001.568-.986l-.576-3.924 2.803-2.5a1.013 1.013 0 00.083-1.431zm-3.753 3.366a.5.5 0 00-.161.446l.6 4.2-3.146-2.14a.5.5 0 00-.562 0l-3.164 2.126.615-4.188a.5.5 0 00-.161-.444l-3-2.704 4.003-.553a.5.5 0 00.393-.302l1.6-3.79a.022.022 0 01.003.007l1.583 3.78a.5.5 0 00.393.303l4.008.577-3.004 2.682z" fill="#FFA800"/></svg>