<svg width="20" height="21" fill="none" xmlns="http://www.w3.org/2000/svg"><g clip-path="url(#clip0)" fill="#1A467C"><path d="M8.807.268C3.951.268 0 4.218 0 9.075s3.951 8.808 8.807 8.808c4.857 0 8.808-3.951 8.808-8.808 0-4.856-3.95-8.807-8.808-8.807zm0 15.989c-3.96 0-7.181-3.222-7.181-7.182 0-3.96 3.222-7.181 7.181-7.181 3.96 0 7.182 3.221 7.182 7.181s-3.222 7.182-7.182 7.182z"/><path d="M19.762 18.88L15.1 14.219a.813.813 0 10-1.15 1.15l4.662 4.66a.81.81 0 001.15 0 .813.813 0 000-1.15z"/></g><defs><clipPath id="clip0"><path fill="#fff" transform="translate(0 .268)" d="M0 0h20v20H0z"/></clipPath></defs></svg>