<svg width="16" height="19" fill="none" xmlns="http://www.w3.org/2000/svg"><path d="M2.66 17.372c.047.847.818 1.509 1.762 1.509h7.155c.945 0 1.716-.662 1.763-1.51l1.03-10.667H1.63l1.03 10.668zm7.105-8.02h1.176v5.823H9.765V9.35zm-2.353 0h1.176v5.823H7.412V9.35zm-2.353 0h1.176v5.823H5.06V9.35zm5.882-5.824V2.469c0-.876-.791-1.588-1.764-1.588H6.824c-.973 0-1.765.712-1.765 1.588v1.059H.353v2.118h15.294V3.528h-4.706zm-4.706 0V2.469c0-.292.264-.53.589-.53h2.353c.324 0 .588.238.588.53v1.059h-3.53z" fill="#1A467C"/></svg>